<svg xmlns="http://www.w3.org/2000/svg" version="1.1" width="287" height="183" viewBox="0 0 287 183"><defs/><path fill="none" stroke="none" d="M 178.5,50.4088 L 179,51.4457 L 179.5,52.4823 L 180,53.518 L 180.5,54.5524 L 181,55.5852 L 181.5,56.616 L 182,57.6443 L 182.5,58.6699 L 183,59.6923 L 183.5,60.7111 L 184,61.7261 L 184.5,62.7368 L 185,63.743 L 185.5,64.7442 L 186,65.7402 L 186.5,66.7306 L 187,67.7153 L 187.5,68.6937 L 188,69.6658 L 188.5,70.6311 L 189,71.5894 L 189.5,72.5405 L 190,73.4841 L 190.5,74.42 L 191,75.348 L 191.5,76.2677 L 192,77.179 L 192.5,78.0818 L 193,78.9757 L 193.5,79.8606 L 194,80.7364 L 194.5,81.6029 L 195,82.4598 L 195.5,83.3072 L 196,84.1447 L 196.5,84.9724 L 197,85.79 L 197.5,86.5974 L 198,87.3946 L 198.5,88.1815 L 199,88.9579 L 199.5,89.7237 L 200,90.479 L 200.5,91.2237 L 201,91.9576 L 201.5,92.6808 L 202,93.3931 L 202.5,94.0946 L 203,94.7853 L 203.5,95.465 L 204,96.1339 L 204.5,96.7919 L 205,97.439 L 205.5,98.0752 L 206,98.7005 L 206.5,99.315 L 207,99.9186 L 207.5,100.511 L 208,101.094 L 208.5,101.665 L 209,102.226 L 209.5,102.776 L 210,103.315 L 210.5,103.844 L 211,104.363 L 211.5,104.871 L 212,105.369 L 212.5,105.857 L 213,106.335 L 213.5,106.803 L 214,107.261 L 214.5,107.709 L 215,108.147 L 215.5,108.576 L 216,108.995 L 216.5,109.404 L 217,109.805 L 217.5,110.196 L 218,110.578 L 218.5,110.952 L 219,111.316 L 219.5,111.672 L 220,112.019 L 220.5,112.358 L 221,112.688 L 221.5,113.01 L 222,113.324 L 222.5,113.63 L 223,113.928 L 223.5,114.219 L 224,114.502 L 224.5,114.777 L 225,115.046 L 225.5,115.307 L 226,115.561 L 226.5,115.808 L 227,116.048 L 227.5,116.282 L 228,116.509 L 228.5,116.729 L 229,116.944 L 229.5,117.152 L 230,117.354 L 230.5,117.551 L 231,117.742 L 231.5,117.927 L 232,118.106 L 232.5,118.28 L 233,118.449 L 233.5,118.613 L 234,118.771 L 234.5,118.925 L 235,119.074 L 235.5,119.218 L 236,119.358 L 236.5,119.493 L 237,119.624 L 237.5,119.751 L 238,119.874 L 238.5,119.992 L 239,120.107 L 239.5,120.218 L 240,120.325 L 240.5,120.429 L 241,120.529 L 241.5,120.625 L 242,120.719 L 242.5,120.809 L 243,120.896 L 243.5,120.98 L 244,121.061 L 244.5,121.139 L 245,121.214 L 245.5,121.287 L 246,121.357 L 246.5,121.424 L 247,121.489 L 247.5,121.552 L 248,121.612 L 248.5,121.67 L 249,121.726 L 249.5,121.78 L 250,121.832 L 250.5,121.882 L 251,121.93 L 251.5,121.976 L 252,122.02 L 252.5,122.063 L 253,122.103 L 253.5,122.143 L 254,122.18 L 254.5,122.217 L 255,122.251 L 255.5,122.285 L 256,122.317 L 256.5,122.348 L 257,122.377 L 257.5,122.405 L 258,122.432 L 258.5,122.458 L 259,122.483 L 259.5,122.507 L 260,122.53 L 260.5,122.552 L 261,122.573 L 261.5,122.593 L 262,122.612 L 262.5,122.63 L 263,122.648 L 263.5,122.665 L 264,122.681 L 264.5,122.696 L 265,122.711 L 265.5,122.725 L 266,122.738 L 266.5,122.751 L 267,122.763 L 267.5,122.775 L 268,122.786 L 268.5,122.797 L 269,122.807 L 269.5,122.816 L 270,122.826 L 270.5,122.834 L 271,122.843 L 271.5,122.851 L 272,122.858 L 272.5,122.866 L 273,122.873 L 273.5,122.879 L 274,122.885 L 274.5,122.891 L 275,122.897 L 275.5,122.902 L 276,122.908 L 276.5,122.912 L 277,122.917 L 277.5,122.921 L 278,122.926 L 278.5,122.93 L 279,122.933 L 279.5,122.937 L 280,122.94 L 280.5,122.944 L 281,122.947 L 281.5,122.95 L 282,122.952 L 282.5,122.955 L 283,122.957 L 283.5,122.96 L 284,122.962 L 284.5,122.964 L 285,122.966 L 285.5,122.968 L 286,122.97 L 286.5,122.972 L 287,122.973 L 287.5,122.975 L 288,122.976 L 288.5,122.978 L 289,122.979 L 289.5,122.98 L 290,122.981 L 290.5,122.982 L 291,122.983 L 291.5,122.984 L 292,122.985 L 292.5,122.986 L 293,122.987 L 293.5,122.988 L 294,122.988 L 294.5,122.989 L 295,122.99 L 295.5,122.99 L 296,122.991 L 296.5,122.992 L 297,122.992 L 297.5,122.993 L 298,122.993 L 298.5,122.993 L 299,122.994 L 299.5,122.994 L 300,122.995 L 300.5,122.995 L 301,122.995 L 301.5,122.996 L 302,122.996 L 302.5,122.996 L 303,122.996 L 303.5,122.997 L 304,122.997 L 304.5,122.997 L 305,122.997 L 305.5,122.997 L 306,122.998 L 306.5,122.998 L 307,122.998 L 307.5,122.998 L 308,122.998 L 308.5,122.998 L 309,122.998 L 309.5,122.998 L 310,122.999 L 310.5,122.999 L 311,122.999 L 311.5,122.999 L 312,122.999 L 312.5,122.999 L 313,122.999 L 313.5,122.999 L 314,122.999 L 314.5,122.999 L 315,122.999 L 315.5,122.999 L 316,122.999 L 316.5,122.999 L 317,122.999 L 317.5,122.999 L 318,123 L 318.5,123 L 318,123 L 317.5,123 L 317,123 L 316.5,123 L 316,123 L 315.5,123 L 315,123 L 314.5,123 L 314,123 L 313.5,123 L 313,123 L 312.5,123 L 312,123 L 311.5,123 L 311,123 L 310.5,123 L 310,123 L 309.5,123 L 309,123 L 308.5,123 L 308,123 L 307.5,123 L 307,123 L 306.5,123 L 306,123 L 305.5,123 L 305,123 L 304.5,123 L 304,123 L 303.5,123 L 303,123 L 302.5,123 L 302,123 L 301.5,123 L 301,123 L 300.5,123 L 300,123 L 299.5,123 L 299,123 L 298.5,123 L 298,123 L 297.5,123 L 297,123 L 296.5,123 L 296,123 L 295.5,123 L 295,123 L 294.5,123 L 294,123 L 293.5,123 L 293,123 L 292.5,123 L 292,123 L 291.5,123 L 291,123 L 290.5,123 L 290,123 L 289.5,123 L 289,123 L 288.5,123 L 288,123 L 287.5,123 L 287,123 L 286.5,123 L 286,123 L 285.5,123 L 285,123 L 284.5,123 L 284,123 L 283.5,123 L 283,123 L 282.5,123 L 282,123 L 281.5,123 L 281,123 L 280.5,123 L 280,123 L 279.5,123 L 279,123 L 278.5,123 L 278,123 L 277.5,123 L 277,123 L 276.5,123 L 276,123 L 275.5,123 L 275,123 L 274.5,123 L 274,123 L 273.5,123 L 273,123 L 272.5,123 L 272,123 L 271.5,123 L 271,123 L 270.5,123 L 270,123 L 269.5,123 L 269,123 L 268.5,123 L 268,123 L 267.5,123 L 267,123 L 266.5,123 L 266,123 L 265.5,123 L 265,123 L 264.5,123 L 264,123 L 263.5,123 L 263,123 L 262.5,123 L 262,123 L 261.5,123 L 261,123 L 260.5,123 L 260,123 L 259.5,123 L 259,123 L 258.5,123 L 258,123 L 257.5,123 L 257,123 L 256.5,123 L 256,123 L 255.5,123 L 255,123 L 254.5,123 L 254,123 L 253.5,123 L 253,123 L 252.5,123 L 252,123 L 251.5,123 L 251,123 L 250.5,123 L 250,123 L 249.5,123 L 249,123 L 248.5,123 L 248,123 L 247.5,123 L 247,123 L 246.5,123 L 246,123 L 245.5,123 L 245,123 L 244.5,123 L 244,123 L 243.5,123 L 243,123 L 242.5,123 L 242,123 L 241.5,123 L 241,123 L 240.5,123 L 240,123 L 239.5,123 L 239,123 L 238.5,123 L 238,123 L 237.5,123 L 237,123 L 236.5,123 L 236,123 L 235.5,123 L 235,123 L 234.5,123 L 234,123 L 233.5,123 L 233,123 L 232.5,123 L 232,123 L 231.5,123 L 231,123 L 230.5,123 L 230,123 L 229.5,123 L 229,123 L 228.5,123 L 228,123 L 227.5,123 L 227,123 L 226.5,123 L 226,123 L 225.5,123 L 225,123 L 224.5,123 L 224,123 L 223.5,123 L 223,123 L 222.5,123 L 222,123 L 221.5,123 L 221,123 L 220.5,123 L 220,123 L 219.5,123 L 219,123 L 218.5,123 L 218,123 L 217.5,123 L 217,123 L 216.5,123 L 216,123 L 215.5,123 L 215,123 L 214.5,123 L 214,123 L 213.5,123 L 213,123 L 212.5,123 L 212,123 L 211.5,123 L 211,123 L 210.5,123 L 210,123 L 209.5,123 L 209,123 L 208.5,123 L 208,123 L 207.5,123 L 207,123 L 206.5,123 L 206,123 L 205.5,123 L 205,123 L 204.5,123 L 204,123 L 203.5,123 L 203,123 L 202.5,123 L 202,123 L 201.5,123 L 201,123 L 200.5,123 L 200,123 L 199.5,123 L 199,123 L 198.5,123 L 198,123 L 197.5,123 L 197,123 L 196.5,123 L 196,123 L 195.5,123 L 195,123 L 194.5,123 L 194,123 L 193.5,123 L 193,123 L 192.5,123 L 192,123 L 191.5,123 L 191,123 L 190.5,123 L 190,123 L 189.5,123 L 189,123 L 188.5,123 L 188,123 L 187.5,123 L 187,123 L 186.5,123 L 186,123 L 185.5,123 L 185,123 L 184.5,123 L 184,123 L 183.5,123 L 183,123 L 182.5,123 L 182,123 L 181.5,123 L 181,123 L 180.5,123 L 180,123 L 179.5,123 L 179,123 L 178.5,123" style="stroke-width: 2px;fill-opacity: 1" stroke-width="2" fill-opacity="1"/><path fill="none" stroke="none" d="M0,0" style="stroke-width: 2px;fill-opacity: 1" stroke-width="2" fill-opacity="1"/><path fill="none" stroke="none" d="M 178.5,50.4088 L 179,51.4457 L 179.5,52.4823 L 180,53.518 L 180.5,54.5524 L 181,55.5852 L 181.5,56.616 L 182,57.6443 L 182.5,58.6699 L 183,59.6923 L 183.5,60.7111 L 184,61.7261 L 184.5,62.7368 L 185,63.743 L 185.5,64.7442 L 186,65.7402 L 186.5,66.7306 L 187,67.7153 L 187.5,68.6937 L 188,69.6658 L 188.5,70.6311 L 189,71.5894 L 189.5,72.5405 L 190,73.4841 L 190.5,74.42 L 191,75.348 L 191.5,76.2677 L 192,77.179 L 192.5,78.0818 L 193,78.9757 L 193.5,79.8606 L 194,80.7364 L 194.5,81.6029 L 195,82.4598 L 195.5,83.3072 L 196,84.1447 L 196.5,84.9724 L 197,85.79 L 197.5,86.5974 L 198,87.3946 L 198.5,88.1815 L 199,88.9579 L 199.5,89.7237 L 200,90.479 L 200.5,91.2237 L 201,91.9576 L 201.5,92.6808 L 202,93.3931 L 202.5,94.0946 L 203,94.7853 L 203.5,95.465 L 204,96.1339 L 204.5,96.7919 L 205,97.439 L 205.5,98.0752 L 206,98.7005 L 206.5,99.315 L 207,99.9186 L 207.5,100.511 L 208,101.094 L 208.5,101.665 L 209,102.226 L 209.5,102.776 L 210,103.315 L 210.5,103.844 L 211,104.363 L 211.5,104.871 L 212,105.369 L 212.5,105.857 L 213,106.335 L 213.5,106.803 L 214,107.261 L 214.5,107.709 L 215,108.147 L 215.5,108.576 L 216,108.995 L 216.5,109.404 L 217,109.805 L 217.5,110.196 L 218,110.578 L 218.5,110.952 L 219,111.316 L 219.5,111.672 L 220,112.019 L 220.5,112.358 L 221,112.688 L 221.5,113.01 L 222,113.324 L 222.5,113.63 L 223,113.928 L 223.5,114.219 L 224,114.502 L 224.5,114.777 L 225,115.046 L 225.5,115.307 L 226,115.561 L 226.5,115.808 L 227,116.048 L 227.5,116.282 L 228,116.509 L 228.5,116.729 L 229,116.944 L 229.5,117.152 L 230,117.354 L 230.5,117.551 L 231,117.742 L 231.5,117.927 L 232,118.106 L 232.5,118.28 L 233,118.449 L 233.5,118.613 L 234,118.771 L 234.5,118.925 L 235,119.074 L 235.5,119.218 L 236,119.358 L 236.5,119.493 L 237,119.624 L 237.5,119.751 L 238,119.874 L 238.5,119.992 L 239,120.107 L 239.5,120.218 L 240,120.325 L 240.5,120.429 L 241,120.529 L 241.5,120.625 L 242,120.719 L 242.5,120.809 L 243,120.896 L 243.5,120.98 L 244,121.061 L 244.5,121.139 L 245,121.214 L 245.5,121.287 L 246,121.357 L 246.5,121.424 L 247,121.489 L 247.5,121.552 L 248,121.612 L 248.5,121.67 L 249,121.726 L 249.5,121.78 L 250,121.832 L 250.5,121.882 L 251,121.93 L 251.5,121.976 L 252,122.02 L 252.5,122.063 L 253,122.103 L 253.5,122.143 L 254,122.18 L 254.5,122.217 L 255,122.251 L 255.5,122.285 L 256,122.317 L 256.5,122.348 L 257,122.377 L 257.5,122.405 L 258,122.432 L 258.5,122.458 L 259,122.483 L 259.5,122.507 L 260,122.53 L 260.5,122.552 L 261,122.573 L 261.5,122.593 L 262,122.612 L 262.5,122.63 L 263,122.648 L 263.5,122.665 L 264,122.681 L 264.5,122.696 L 265,122.711 L 265.5,122.725 L 266,122.738 L 266.5,122.751 L 267,122.763 L 267.5,122.775 L 268,122.786 L 268.5,122.797 L 269,122.807 L 269.5,122.816 L 270,122.826 L 270.5,122.834 L 271,122.843 L 271.5,122.851 L 272,122.858 L 272.5,122.866 L 273,122.873 L 273.5,122.879 L 274,122.885 L 274.5,122.891 L 275,122.897 L 275.5,122.902 L 276,122.908 L 276.5,122.912 L 277,122.917 L 277.5,122.921 L 278,122.926 L 278.5,122.93 L 279,122.933 L 279.5,122.937 L 280,122.94 L 280.5,122.944 L 281,122.947 L 281.5,122.95 L 282,122.952 L 282.5,122.955 L 283,122.957 L 283.5,122.96 L 284,122.962 L 284.5,122.964 L 285,122.966 L 285.5,122.968 L 286,122.97 L 286.5,122.972 L 287,122.973 L 287.5,122.975 L 288,122.976 L 288.5,122.978 L 289,122.979 L 289.5,122.98 L 290,122.981 L 290.5,122.982 L 291,122.983 L 291.5,122.984 L 292,122.985 L 292.5,122.986 L 293,122.987 L 293.5,122.988 L 294,122.988 L 294.5,122.989 L 295,122.99 L 295.5,122.99 L 296,122.991 L 296.5,122.992 L 297,122.992 L 297.5,122.993 L 298,122.993 L 298.5,122.993 L 299,122.994 L 299.5,122.994 L 300,122.995 L 300.5,122.995 L 301,122.995 L 301.5,122.996 L 302,122.996 L 302.5,122.996 L 303,122.996 L 303.5,122.997 L 304,122.997 L 304.5,122.997 L 305,122.997 L 305.5,122.997 L 306,122.998 L 306.5,122.998 L 307,122.998 L 307.5,122.998 L 308,122.998 L 308.5,122.998 L 309,122.998 L 309.5,122.998 L 310,122.999 L 310.5,122.999 L 311,122.999 L 311.5,122.999 L 312,122.999 L 312.5,122.999 L 313,122.999 L 313.5,122.999 L 314,122.999 L 314.5,122.999 L 315,122.999 L 315.5,122.999 L 316,122.999 L 316.5,122.999 L 317,122.999 L 317.5,122.999 L 318,123 L 318.5,123 L 318,123 L 317.5,123 L 317,123 L 316.5,123 L 316,123 L 315.5,123 L 315,123 L 314.5,123 L 314,123 L 313.5,123 L 313,123 L 312.5,123 L 312,123 L 311.5,123 L 311,123 L 310.5,123 L 310,123 L 309.5,123 L 309,123 L 308.5,123 L 308,123 L 307.5,123 L 307,123 L 306.5,123 L 306,123 L 305.5,123 L 305,123 L 304.5,123 L 304,123 L 303.5,123 L 303,123 L 302.5,123 L 302,123 L 301.5,123 L 301,123 L 300.5,123 L 300,123 L 299.5,123 L 299,123 L 298.5,123 L 298,123 L 297.5,123 L 297,123 L 296.5,123 L 296,123 L 295.5,123 L 295,123 L 294.5,123 L 294,123 L 293.5,123 L 293,123 L 292.5,123 L 292,123 L 291.5,123 L 291,123 L 290.5,123 L 290,123 L 289.5,123 L 289,123 L 288.5,123 L 288,123 L 287.5,123 L 287,123 L 286.5,123 L 286,123 L 285.5,123 L 285,123 L 284.5,123 L 284,123 L 283.5,123 L 283,123 L 282.5,123 L 282,123 L 281.5,123 L 281,123 L 280.5,123 L 280,123 L 279.5,123 L 279,123 L 278.5,123 L 278,123 L 277.5,123 L 277,123 L 276.5,123 L 276,123 L 275.5,123 L 275,123 L 274.5,123 L 274,123 L 273.5,123 L 273,123 L 272.5,123 L 272,123 L 271.5,123 L 271,123 L 270.5,123 L 270,123 L 269.5,123 L 269,123 L 268.5,123 L 268,123 L 267.5,123 L 267,123 L 266.5,123 L 266,123 L 265.5,123 L 265,123 L 264.5,123 L 264,123 L 263.5,123 L 263,123 L 262.5,123 L 262,123 L 261.5,123 L 261,123 L 260.5,123 L 260,123 L 259.5,123 L 259,123 L 258.5,123 L 258,123 L 257.5,123 L 257,123 L 256.5,123 L 256,123 L 255.5,123 L 255,123 L 254.5,123 L 254,123 L 253.5,123 L 253,123 L 252.5,123 L 252,123 L 251.5,123 L 251,123 L 250.5,123 L 250,123 L 249.5,123 L 249,123 L 248.5,123 L 248,123 L 247.5,123 L 247,123 L 246.5,123 L 246,123 L 245.5,123 L 245,123 L 244.5,123 L 244,123 L 243.5,123 L 243,123 L 242.5,123 L 242,123 L 241.5,123 L 241,123 L 240.5,123 L 240,123 L 239.5,123 L 239,123 L 238.5,123 L 238,123 L 237.5,123 L 237,123 L 236.5,123 L 236,123 L 235.5,123 L 235,123 L 234.5,123 L 234,123 L 233.5,123 L 233,123 L 232.5,123 L 232,123 L 231.5,123 L 231,123 L 230.5,123 L 230,123 L 229.5,123 L 229,123 L 228.5,123 L 228,123 L 227.5,123 L 227,123 L 226.5,123 L 226,123 L 225.5,123 L 225,123 L 224.5,123 L 224,123 L 223.5,123 L 223,123 L 222.5,123 L 222,123 L 221.5,123 L 221,123 L 220.5,123 L 220,123 L 219.5,123 L 219,123 L 218.5,123 L 218,123 L 217.5,123 L 217,123 L 216.5,123 L 216,123 L 215.5,123 L 215,123 L 214.5,123 L 214,123 L 213.5,123 L 213,123 L 212.5,123 L 212,123 L 211.5,123 L 211,123 L 210.5,123 L 210,123 L 209.5,123 L 209,123 L 208.5,123 L 208,123 L 207.5,123 L 207,123 L 206.5,123 L 206,123 L 205.5,123 L 205,123 L 204.5,123 L 204,123 L 203.5,123 L 203,123 L 202.5,123 L 202,123 L 201.5,123 L 201,123 L 200.5,123 L 200,123 L 199.5,123 L 199,123 L 198.5,123 L 198,123 L 197.5,123 L 197,123 L 196.5,123 L 196,123 L 195.5,123 L 195,123 L 194.5,123 L 194,123 L 193.5,123 L 193,123 L 192.5,123 L 192,123 L 191.5,123 L 191,123 L 190.5,123 L 190,123 L 189.5,123 L 189,123 L 188.5,123 L 188,123 L 187.5,123 L 187,123 L 186.5,123 L 186,123 L 185.5,123 L 185,123 L 184.5,123 L 184,123 L 183.5,123 L 183,123 L 182.5,123 L 182,123 L 181.5,123 L 181,123 L 180.5,123 L 180,123 L 179.5,123 L 179,123 L 178.5,123" style="stroke-width: 2px;fill-opacity: 1" stroke-width="2" fill-opacity="1"/><path fill="none" stroke="none" d="M0,0" style="stroke-width: 2px;fill-opacity: 1" stroke-width="2" fill-opacity="1"/><path fill="none" stroke="none" d="M 178.5,50.4088 L 179,51.4457 L 179.5,52.4823 L 180,53.518 L 180.5,54.5524 L 181,55.5852 L 181.5,56.616 L 182,57.6443 L 182.5,58.6699 L 183,59.6923 L 183.5,60.7111 L 184,61.7261 L 184.5,62.7368 L 185,63.743 L 185.5,64.7442 L 186,65.7402 L 186.5,66.7306 L 187,67.7153 L 187.5,68.6937 L 188,69.6658 L 188.5,70.6311 L 189,71.5894 L 189.5,72.5405 L 190,73.4841 L 190.5,74.42 L 191,75.348 L 191.5,76.2677 L 192,77.179 L 192.5,78.0818 L 193,78.9757 L 193.5,79.8606 L 194,80.7364 L 194.5,81.6029 L 195,82.4598 L 195.5,83.3072 L 196,84.1447 L 196.5,84.9724 L 197,85.79 L 197.5,86.5974 L 198,87.3946 L 198.5,88.1815 L 199,88.9579 L 199.5,89.7237 L 200,90.479 L 200.5,91.2237 L 201,91.9576 L 201.5,92.6808 L 202,93.3931 L 202.5,94.0946 L 203,94.7853 L 203.5,95.465 L 204,96.1339 L 204.5,96.7919 L 205,97.439 L 205.5,98.0752 L 206,98.7005 L 206.5,99.315 L 207,99.9186 L 207.5,100.511 L 208,101.094 L 208.5,101.665 L 209,102.226 L 209.5,102.776 L 210,103.315 L 210.5,103.844 L 211,104.363 L 211.5,104.871 L 212,105.369 L 212.5,105.857 L 213,106.335 L 213.5,106.803 L 214,107.261 L 214.5,107.709 L 215,108.147 L 215.5,108.576 L 216,108.995 L 216.5,109.404 L 217,109.805 L 217.5,110.196 L 218,110.578 L 218.5,110.952 L 219,111.316 L 219.5,111.672 L 220,112.019 L 220.5,112.358 L 221,112.688 L 221.5,113.01 L 222,113.324 L 222.5,113.63 L 223,113.928 L 223.5,114.219 L 224,114.502 L 224.5,114.777 L 225,115.046 L 225.5,115.307 L 226,115.561 L 226.5,115.808 L 227,116.048 L 227.5,116.282 L 228,116.509 L 228.5,116.729 L 229,116.944 L 229.5,117.152 L 230,117.354 L 230.5,117.551 L 231,117.742 L 231.5,117.927 L 232,118.106 L 232.5,118.28 L 233,118.449 L 233.5,118.613 L 234,118.771 L 234.5,118.925 L 235,119.074 L 235.5,119.218 L 236,119.358 L 236.5,119.493 L 237,119.624 L 237.5,119.751 L 238,119.874 L 238.5,119.992 L 239,120.107 L 239.5,120.218 L 240,120.325 L 240.5,120.429 L 241,120.529 L 241.5,120.625 L 242,120.719 L 242.5,120.809 L 243,120.896 L 243.5,120.98 L 244,121.061 L 244.5,121.139 L 245,121.214 L 245.5,121.287 L 246,121.357 L 246.5,121.424 L 247,121.489 L 247.5,121.552 L 248,121.612 L 248.5,121.67 L 249,121.726 L 249.5,121.78 L 250,121.832 L 250.5,121.882 L 251,121.93 L 251.5,121.976 L 252,122.02 L 252.5,122.063 L 253,122.103 L 253.5,122.143 L 254,122.18 L 254.5,122.217 L 255,122.251 L 255.5,122.285 L 256,122.317 L 256.5,122.348 L 257,122.377 L 257.5,122.405 L 258,122.432 L 258.5,122.458 L 259,122.483 L 259.5,122.507 L 260,122.53 L 260.5,122.552 L 261,122.573 L 261.5,122.593 L 262,122.612 L 262.5,122.63 L 263,122.648 L 263.5,122.665 L 264,122.681 L 264.5,122.696 L 265,122.711 L 265.5,122.725 L 266,122.738 L 266.5,122.751 L 267,122.763 L 267.5,122.775 L 268,122.786 L 268.5,122.797 L 269,122.807 L 269.5,122.816 L 270,122.826 L 270.5,122.834 L 271,122.843 L 271.5,122.851 L 272,122.858 L 272.5,122.866 L 273,122.873 L 273.5,122.879 L 274,122.885 L 274.5,122.891 L 275,122.897 L 275.5,122.902 L 276,122.908 L 276.5,122.912 L 277,122.917 L 277.5,122.921 L 278,122.926 L 278.5,122.93 L 279,122.933 L 279.5,122.937 L 280,122.94 L 280.5,122.944 L 281,122.947 L 281.5,122.95 L 282,122.952 L 282.5,122.955 L 283,122.957 L 283.5,122.96 L 284,122.962 L 284.5,122.964 L 285,122.966 L 285.5,122.968 L 286,122.97 L 286.5,122.972 L 287,122.973 L 287.5,122.975 L 288,122.976 L 288.5,122.978 L 289,122.979 L 289.5,122.98 L 290,122.981 L 290.5,122.982 L 291,122.983 L 291.5,122.984 L 292,122.985 L 292.5,122.986 L 293,122.987 L 293.5,122.988 L 294,122.988 L 294.5,122.989 L 295,122.99 L 295.5,122.99 L 296,122.991 L 296.5,122.992 L 297,122.992 L 297.5,122.993 L 298,122.993 L 298.5,122.993 L 299,122.994 L 299.5,122.994 L 300,122.995 L 300.5,122.995 L 301,122.995 L 301.5,122.996 L 302,122.996 L 302.5,122.996 L 303,122.996 L 303.5,122.997 L 304,122.997 L 304.5,122.997 L 305,122.997 L 305.5,122.997 L 306,122.998 L 306.5,122.998 L 307,122.998 L 307.5,122.998 L 308,122.998 L 308.5,122.998 L 309,122.998 L 309.5,122.998 L 310,122.999 L 310.5,122.999 L 311,122.999 L 311.5,122.999 L 312,122.999 L 312.5,122.999 L 313,122.999 L 313.5,122.999 L 314,122.999 L 314.5,122.999 L 315,122.999 L 315.5,122.999 L 316,122.999 L 316.5,122.999 L 317,122.999 L 317.5,122.999 L 318,123 L 318.5,123 L 318,123 L 317.5,123 L 317,123 L 316.5,123 L 316,123 L 315.5,123 L 315,123 L 314.5,123 L 314,123 L 313.5,123 L 313,123 L 312.5,123 L 312,123 L 311.5,123 L 311,123 L 310.5,123 L 310,123 L 309.5,123 L 309,123 L 308.5,123 L 308,123 L 307.5,123 L 307,123 L 306.5,123 L 306,123 L 305.5,123 L 305,123 L 304.5,123 L 304,123 L 303.5,123 L 303,123 L 302.5,123 L 302,123 L 301.5,123 L 301,123 L 300.5,123 L 300,123 L 299.5,123 L 299,123 L 298.5,123 L 298,123 L 297.5,123 L 297,123 L 296.5,123 L 296,123 L 295.5,123 L 295,123 L 294.5,123 L 294,123 L 293.5,123 L 293,123 L 292.5,123 L 292,123 L 291.5,123 L 291,123 L 290.5,123 L 290,123 L 289.5,123 L 289,123 L 288.5,123 L 288,123 L 287.5,123 L 287,123 L 286.5,123 L 286,123 L 285.5,123 L 285,123 L 284.5,123 L 284,123 L 283.5,123 L 283,123 L 282.5,123 L 282,123 L 281.5,123 L 281,123 L 280.5,123 L 280,123 L 279.5,123 L 279,123 L 278.5,123 L 278,123 L 277.5,123 L 277,123 L 276.5,123 L 276,123 L 275.5,123 L 275,123 L 274.5,123 L 274,123 L 273.5,123 L 273,123 L 272.5,123 L 272,123 L 271.5,123 L 271,123 L 270.5,123 L 270,123 L 269.5,123 L 269,123 L 268.5,123 L 268,123 L 267.5,123 L 267,123 L 266.5,123 L 266,123 L 265.5,123 L 265,123 L 264.5,123 L 264,123 L 263.5,123 L 263,123 L 262.5,123 L 262,123 L 261.5,123 L 261,123 L 260.5,123 L 260,123 L 259.5,123 L 259,123 L 258.5,123 L 258,123 L 257.5,123 L 257,123 L 256.5,123 L 256,123 L 255.5,123 L 255,123 L 254.5,123 L 254,123 L 253.5,123 L 253,123 L 252.5,123 L 252,123 L 251.5,123 L 251,123 L 250.5,123 L 250,123 L 249.5,123 L 249,123 L 248.5,123 L 248,123 L 247.5,123 L 247,123 L 246.5,123 L 246,123 L 245.5,123 L 245,123 L 244.5,123 L 244,123 L 243.5,123 L 243,123 L 242.5,123 L 242,123 L 241.5,123 L 241,123 L 240.5,123 L 240,123 L 239.5,123 L 239,123 L 238.5,123 L 238,123 L 237.5,123 L 237,123 L 236.5,123 L 236,123 L 235.5,123 L 235,123 L 234.5,123 L 234,123 L 233.5,123 L 233,123 L 232.5,123 L 232,123 L 231.5,123 L 231,123 L 230.5,123 L 230,123 L 229.5,123 L 229,123 L 228.5,123 L 228,123 L 227.5,123 L 227,123 L 226.5,123 L 226,123 L 225.5,123 L 225,123 L 224.5,123 L 224,123 L 223.5,123 L 223,123 L 222.5,123 L 222,123 L 221.5,123 L 221,123 L 220.5,123 L 220,123 L 219.5,123 L 219,123 L 218.5,123 L 218,123 L 217.5,123 L 217,123 L 216.5,123 L 216,123 L 215.5,123 L 215,123 L 214.5,123 L 214,123 L 213.5,123 L 213,123 L 212.5,123 L 212,123 L 211.5,123 L 211,123 L 210.5,123 L 210,123 L 209.5,123 L 209,123 L 208.5,123 L 208,123 L 207.5,123 L 207,123 L 206.5,123 L 206,123 L 205.5,123 L 205,123 L 204.5,123 L 204,123 L 203.5,123 L 203,123 L 202.5,123 L 202,123 L 201.5,123 L 201,123 L 200.5,123 L 200,123 L 199.5,123 L 199,123 L 198.5,123 L 198,123 L 197.5,123 L 197,123 L 196.5,123 L 196,123 L 195.5,123 L 195,123 L 194.5,123 L 194,123 L 193.5,123 L 193,123 L 192.5,123 L 192,123 L 191.5,123 L 191,123 L 190.5,123 L 190,123 L 189.5,123 L 189,123 L 188.5,123 L 188,123 L 187.5,123 L 187,123 L 186.5,123 L 186,123 L 185.5,123 L 185,123 L 184.5,123 L 184,123 L 183.5,123 L 183,123 L 182.5,123 L 182,123 L 181.5,123 L 181,123 L 180.5,123 L 180,123 L 179.5,123 L 179,123 L 178.5,123" style="stroke-width: 2px;fill-opacity: 1" stroke-width="2" fill-opacity="1"/><path fill="none" stroke="none" d="M0,0" style="stroke-width: 2px;fill-opacity: 1" stroke-width="2" fill-opacity="1"/><path fill="none" stroke="none" d="M0,0" style="stroke-width: 2px;fill-opacity: 1" stroke-width="2" fill-opacity="1"/><path fill="#ccfaff" stroke="#11accd" d="M 21,122.738 L 21.5,122.725 L 22,122.711 L 22.5,122.696 L 23,122.681 L 23.5,122.665 L 24,122.648 L 24.5,122.63 L 25,122.612 L 25.5,122.593 L 26,122.573 L 26.5,122.552 L 27,122.53 L 27.5,122.507 L 28,122.483 L 28.5,122.458 L 29,122.432 L 29.5,122.405 L 30,122.377 L 30.5,122.348 L 31,122.317 L 31.5,122.285 L 32,122.251 L 32.5,122.217 L 33,122.18 L 33.5,122.143 L 34,122.103 L 34.5,122.063 L 35,122.02 L 35.5,121.976 L 36,121.93 L 36.5,121.882 L 37,121.832 L 37.5,121.78 L 38,121.726 L 38.5,121.67 L 39,121.612 L 39.5,121.552 L 40,121.489 L 40.5,121.424 L 41,121.357 L 41.5,121.287 L 42,121.214 L 42.5,121.139 L 43,121.061 L 43.5,120.98 L 44,120.896 L 44.5,120.809 L 45,120.719 L 45.5,120.625 L 46,120.529 L 46.5,120.429 L 47,120.325 L 47.5,120.218 L 48,120.107 L 48.5,119.992 L 49,119.874 L 49.5,119.751 L 50,119.624 L 50.5,119.493 L 51,119.358 L 51.5,119.218 L 52,119.074 L 52.5,118.925 L 53,118.771 L 53.5,118.613 L 54,118.449 L 54.5,118.28 L 55,118.106 L 55.5,117.927 L 56,117.742 L 56.5,117.551 L 57,117.354 L 57.5,117.152 L 58,116.944 L 58.5,116.729 L 59,116.509 L 59.5,116.282 L 60,116.048 L 60.5,115.808 L 61,115.561 L 61.5,115.307 L 62,115.046 L 62.5,114.777 L 63,114.502 L 63.5,114.219 L 64,113.928 L 64.5,113.63 L 65,113.324 L 65.5,113.01 L 66,112.688 L 66.5,112.358 L 67,112.019 L 67.5,111.672 L 68,111.316 L 68.5,110.952 L 69,110.578 L 69.5,110.196 L 70,109.805 L 70.5,109.404 L 71,108.995 L 71.5,108.576 L 72,108.147 L 72.5,107.709 L 73,107.261 L 73.5,106.803 L 74,106.335 L 74.5,105.857 L 75,105.369 L 75.5,104.871 L 76,104.363 L 76.5,103.844 L 77,103.315 L 77.5,102.776 L 78,102.226 L 78.5,101.665 L 79,101.094 L 79.5,100.511 L 80,99.9186 L 80.5,99.315 L 81,98.7005 L 81.5,98.0752 L 82,97.439 L 82.5,96.7919 L 83,96.1339 L 83.5,95.465 L 84,94.7853 L 84.5,94.0946 L 85,93.3931 L 85.5,92.6808 L 86,91.9576 L 86.5,91.2237 L 87,90.479 L 87.5,89.7237 L 88,88.9579 L 88.5,88.1815 L 89,87.3946 L 89.5,86.5974 L 90,85.79 L 90.5,84.9724 L 91,84.1447 L 91.5,83.3072 L 92,82.4598 L 92.5,81.6029 L 93,80.7364 L 93.5,79.8606 L 94,78.9757 L 94.5,78.0818 L 95,77.179 L 95.5,76.2677 L 96,75.348 L 96.5,74.42 L 97,73.4841 L 97.5,72.5405 L 98,71.5894 L 98.5,70.6311 L 99,69.6658 L 99.5,68.6937 L 100,67.7153 L 100.5,66.7306 L 101,65.7402 L 101.5,64.7442 L 102,63.743 L 102.5,62.7368 L 103,61.7261 L 103.5,60.7111 L 104,59.6923 L 104.5,58.6699 L 105,57.6443 L 105.5,56.616 L 106,55.5852 L 106.5,54.5524 L 107,53.518 L 107.5,52.4823 L 108,51.4457 L 108.5,50.4088 L 109,49.3718 L 109.5,48.3353 L 110,47.2997 L 110.5,46.2653 L 111,45.2327 L 111.5,44.2022 L 112,43.1744 L 112.5,42.1497 L 113,41.1286 L 113.5,40.1114 L 114,39.0988 L 114.5,38.0911 L 115,37.0889 L 115.5,36.0925 L 116,35.1026 L 116.5,34.1195 L 117,33.1437 L 117.5,32.1758 L 118,31.2162 L 118.5,30.2654 L 119,29.3238 L 119.5,28.392 L 120,27.4704 L 120.5,26.5596 L 121,25.6599 L 121.5,24.7718 L 122,23.8959 L 122.5,23.0326 L 123,22.1824 L 123.5,21.3456 L 124,20.5228 L 124.5,19.7145 L 125,18.921 L 125.5,18.1428 L 126,17.3804 L 126.5,16.6341 L 127,15.9044 L 127.5,15.1918 L 128,14.4965 L 128.5,13.819 L 129,13.1597 L 129.5,12.519 L 130,11.8972 L 130.5,11.2947 L 131,10.7118 L 131.5,10.149 L 132,9.60647 L 132.5,9.08459 L 133,8.58366 L 133.5,8.10397 L 134,7.64582 L 134.5,7.20948 L 135,6.7952 L 135.5,6.40324 L 136,6.03383 L 136.5,5.68719 L 137,5.36354 L 137.5,5.06306 L 138,4.78595 L 138.5,4.53236 L 139,4.30245 L 139.5,4.09637 L 140,3.91424 L 140.5,3.75616 L 141,3.62224 L 141.5,3.51256 L 142,3.42718 L 142.5,3.36616 L 143,3.32953 L 143.5,3.31732 L 144,3.32953 L 144.5,3.36616 L 145,3.42718 L 145.5,3.51256 L 146,3.62224 L 146.5,3.75616 L 147,3.91424 L 147.5,4.09637 L 148,4.30245 L 148.5,4.53236 L 149,4.78595 L 149.5,5.06306 L 150,5.36354 L 150.5,5.68719 L 151,6.03383 L 151.5,6.40324 L 152,6.7952 L 152.5,7.20948 L 153,7.64582 L 153.5,8.10397 L 154,8.58366 L 154.5,9.08459 L 155,9.60647 L 155.5,10.149 L 156,10.7118 L 156.5,11.2947 L 157,11.8972 L 157.5,12.519 L 158,13.1597 L 158.5,13.819 L 159,14.4965 L 159.5,15.1918 L 160,15.9044 L 160.5,16.6341 L 161,17.3804 L 161.5,18.1428 L 162,18.921 L 162.5,19.7145 L 163,20.5228 L 163.5,21.3456 L 164,22.1824 L 164.5,23.0326 L 165,23.8959 L 165.5,24.7718 L 166,25.6599 L 166.5,26.5596 L 167,27.4704 L 167.5,28.392 L 168,29.3238 L 168.5,30.2654 L 169,31.2162 L 169.5,32.1758 L 170,33.1437 L 170.5,34.1195 L 171,35.1026 L 171.5,36.0925 L 172,37.0889 L 172.5,38.0911 L 173,39.0988 L 173.5,40.1114 L 174,41.1286 L 174.5,42.1497 L 175,43.1744 L 175.5,44.2022 L 176,45.2327 L 176.5,46.2653 L 177,47.2997 L 177.5,48.3353 L 178,49.3718 L 178.5,50.4088 L 179,51.4457 L 179.5,52.4823 L 180,53.518 L 180.5,54.5524 L 181,55.5852 L 181.5,56.616 L 182,57.6443 L 182.5,58.6699 L 183,59.6923 L 183.5,60.7111 L 184,61.7261 L 184.5,62.7368 L 185,63.743 L 185.5,64.7442 L 186,65.7402 L 186.5,66.7306 L 187,67.7153 L 187.5,68.6937 L 188,69.6658 L 188.5,70.6311 L 189,71.5894 L 189.5,72.5405 L 190,73.4841 L 190.5,74.42 L 191,75.348 L 191.5,76.2677 L 192,77.179 L 192.5,78.0818 L 193,78.9757 L 193.5,79.8606 L 194,80.7364 L 194.5,81.6029 L 195,82.4598 L 195.5,83.3072 L 196,84.1447 L 196.5,84.9724 L 197,85.79 L 197.5,86.5974 L 198,87.3946 L 198.5,88.1815 L 199,88.9579 L 199.5,89.7237 L 200,90.479 L 200.5,91.2237 L 201,91.9576 L 201.5,92.6808 L 202,93.3931 L 202.5,94.0946 L 203,94.7853 L 203.5,95.465 L 204,96.1339 L 204.5,96.7919 L 205,97.439 L 205.5,98.0752 L 206,98.7005 L 206.5,99.315 L 207,99.9186 L 207.5,100.511 L 208,101.094 L 208.5,101.665 L 209,102.226 L 209.5,102.776 L 210,103.315 L 210.5,103.844 L 211,104.363 L 211.5,104.871 L 212,105.369 L 212.5,105.857 L 213,106.335 L 213.5,106.803 L 214,107.261 L 214.5,107.709 L 215,108.147 L 215.5,108.576 L 216,108.995 L 216.5,109.404 L 217,109.805 L 217.5,110.196 L 218,110.578 L 218.5,110.952 L 219,111.316 L 219.5,111.672 L 220,112.019 L 220.5,112.358 L 221,112.688 L 221.5,113.01 L 222,113.324 L 222.5,113.63 L 223,113.928 L 223.5,114.219 L 224,114.502 L 224.5,114.777 L 225,115.046 L 225.5,115.307 L 226,115.561 L 226.5,115.808 L 227,116.048 L 227.5,116.282 L 228,116.509 L 228.5,116.729 L 229,116.944 L 229.5,117.152 L 230,117.354 L 230.5,117.551 L 231,117.742 L 231.5,117.927 L 232,118.106 L 232.5,118.28 L 233,118.449 L 233.5,118.613 L 234,118.771 L 234.5,118.925 L 235,119.074 L 235.5,119.218 L 236,119.358 L 236.5,119.493 L 237,119.624 L 237.5,119.751 L 238,119.874 L 238.5,119.992 L 239,120.107 L 239.5,120.218 L 240,120.325 L 240.5,120.429 L 241,120.529 L 241.5,120.625 L 242,120.719 L 242.5,120.809 L 243,120.896 L 243.5,120.98 L 244,121.061 L 244.5,121.139 L 245,121.214 L 245.5,121.287 L 246,121.357 L 246.5,121.424 L 247,121.489 L 247.5,121.552 L 248,121.612 L 248.5,121.67 L 249,121.726 L 249.5,121.78 L 250,121.832 L 250.5,121.882 L 251,121.93 L 251.5,121.976 L 252,122.02 L 252.5,122.063 L 253,122.103 L 253.5,122.143 L 254,122.18 L 254.5,122.217 L 255,122.251 L 255.5,122.285 L 256,122.317 L 256.5,122.348 L 257,122.377 L 257.5,122.405 L 258,122.432 L 258.5,122.458 L 259,122.483 L 259.5,122.507 L 260,122.53 L 260.5,122.552 L 261,122.573 L 261.5,122.593 L 262,122.612 L 262.5,122.63 L 263,122.648 L 263.5,122.665 L 264,122.681 L 264.5,122.696 L 265,122.711 L 265.5,122.725 L 266,122.738" style="stroke-width: 3px;fill-opacity: 0.3" stroke-width="3" fill-opacity="0.3"/><path fill="none" stroke="#000000" d="M 21,123 L 266,123" style="stroke-width: 2px" stroke-width="2"/><path fill="none" stroke="#000000" d="M 38.5,123 L 38.5,127.5" style="stroke-width: 1px" stroke-width="1"/><path fill="none" stroke="#000000" d="M 73.5,123 L 73.5,127.5" style="stroke-width: 1px" stroke-width="1"/><path fill="none" stroke="#000000" d="M 108.5,123 L 108.5,127.5" style="stroke-width: 1px" stroke-width="1"/><path fill="none" stroke="#000000" d="M 143.5,123 L 143.5,127.5" style="stroke-width: 1px" stroke-width="1"/><path fill="none" stroke="#000000" d="M 178.5,123 L 178.5,127.5" style="stroke-width: 1px" stroke-width="1"/><path fill="none" stroke="#000000" d="M 213.5,123 L 213.5,127.5" style="stroke-width: 1px" stroke-width="1"/><path fill="none" stroke="#000000" d="M 248.5,123 L 248.5,127.5" style="stroke-width: 1px" stroke-width="1"/><path fill="none" stroke="#000000" d="M 178.5,50.4088 L 178.5,123" style="stroke-width: 1px" stroke-width="1"/><path fill="none" stroke="#000000" d="M 213.5,106.803 L 213.5,123" style="stroke-width: 1px" stroke-width="1"/><path fill="none" stroke="#000000" d="M 248.5,121.67 L 248.5,123" style="stroke-width: 1px" stroke-width="1"/><path fill="none" stroke="#000000" d="M 143.5,3.31732 L 143.5,123" style="stroke-width: 1px" stroke-width="1"/><path fill="none" stroke="#000000" d="M 108.5,50.4088 L 108.5,123" style="stroke-width: 1px" stroke-width="1"/><path fill="none" stroke="#000000" d="M 73.5,106.803 L 73.5,123" style="stroke-width: 1px" stroke-width="1"/></svg>