<?xml version="1.0" encoding="utf-8" standalone="no"?>
<!DOCTYPE svg PUBLIC "-//W3C//DTD SVG 1.1//EN"
  "http://www.w3.org/Graphics/SVG/1.1/DTD/svg11.dtd">
<!-- Created with matplotlib (https://matplotlib.org/) -->
<svg height="216.266563pt" version="1.1" viewBox="0 0 625.55375 216.266563" width="625.55375pt" xmlns="http://www.w3.org/2000/svg" xmlns:xlink="http://www.w3.org/1999/xlink">
 <defs>
  <style type="text/css">
*{stroke-linecap:butt;stroke-linejoin:round;}
  </style>
 </defs>
 <g id="figure_1">
  <g id="patch_1">
   <path d="M 0 216.266563 
L 625.55375 216.266563 
L 625.55375 0 
L 0 0 
z
" style="fill:#ffffff;"/>
  </g>
  <g id="axes_1">
   <g id="patch_2">
    <path d="M 60.35375 174.839063 
L 618.35375 174.839063 
L 618.35375 11.759062 
L 60.35375 11.759062 
z
" style="fill:#ffffff;"/>
   </g>
   <g id="patch_3">
    <path clip-path="url(#pb305bb34c8)" d="M 85.717386 174.839063 
L 117.421932 174.839063 
L 117.421932 27.414742 
L 85.717386 27.414742 
z
" style="fill:url(#ha3f78cb1ad);"/>
   </g>
   <g id="patch_4">
    <path clip-path="url(#pb305bb34c8)" d="M 125.348068 174.839063 
L 157.052614 174.839063 
L 157.052614 133.547207 
L 125.348068 133.547207 
z
" style="fill:url(#ha3f78cb1ad);"/>
   </g>
   <g id="patch_5">
    <path clip-path="url(#pb305bb34c8)" d="M 164.97875 174.839063 
L 196.683295 174.839063 
L 196.683295 56.26903 
L 164.97875 56.26903 
z
" style="fill:url(#ha3f78cb1ad);"/>
   </g>
   <g id="patch_6">
    <path clip-path="url(#pb305bb34c8)" d="M 204.609432 174.839063 
L 236.313977 174.839063 
L 236.313977 65.336278 
L 204.609432 65.336278 
z
" style="fill:url(#ha3f78cb1ad);"/>
   </g>
   <g id="patch_7">
    <path clip-path="url(#pb305bb34c8)" d="M 244.240114 174.839063 
L 275.944659 174.839063 
L 275.944659 59.269702 
L 244.240114 59.269702 
z
" style="fill:url(#ha3f78cb1ad);"/>
   </g>
   <g id="patch_8">
    <path clip-path="url(#pb305bb34c8)" d="M 283.870795 174.839063 
L 315.575341 174.839063 
L 315.575341 79.796038 
L 283.870795 79.796038 
z
" style="fill:url(#ha3f78cb1ad);"/>
   </g>
   <g id="patch_9">
    <path clip-path="url(#pb305bb34c8)" d="M 323.501477 174.839063 
L 355.206023 174.839063 
L 355.206023 93.45127 
L 323.501477 93.45127 
z
" style="fill:url(#ha3f78cb1ad);"/>
   </g>
   <g id="patch_10">
    <path clip-path="url(#pb305bb34c8)" d="M 363.132159 174.839063 
L 394.836705 174.839063 
L 394.836705 92.755462 
L 363.132159 92.755462 
z
" style="fill:url(#ha3f78cb1ad);"/>
   </g>
   <g id="patch_11">
    <path clip-path="url(#pb305bb34c8)" d="M 402.762841 174.839063 
L 434.467386 174.839063 
L 434.467386 118.326406 
L 402.762841 118.326406 
z
" style="fill:url(#ha3f78cb1ad);"/>
   </g>
   <g id="patch_12">
    <path clip-path="url(#pb305bb34c8)" d="M 442.393523 174.839063 
L 474.098068 174.839063 
L 474.098068 128.459111 
L 442.393523 128.459111 
z
" style="fill:url(#ha3f78cb1ad);"/>
   </g>
   <g id="patch_13">
    <path clip-path="url(#pb305bb34c8)" d="M 482.024205 174.839063 
L 513.72875 174.839063 
L 513.72875 130.068166 
L 482.024205 130.068166 
z
" style="fill:url(#ha3f78cb1ad);"/>
   </g>
   <g id="patch_14">
    <path clip-path="url(#pb305bb34c8)" d="M 521.654886 174.839063 
L 553.359432 174.839063 
L 553.359432 156.987239 
L 521.654886 156.987239 
z
" style="fill:url(#ha3f78cb1ad);"/>
   </g>
   <g id="patch_15">
    <path clip-path="url(#pb305bb34c8)" d="M 561.285568 174.839063 
L 592.990114 174.839063 
L 592.990114 71.402854 
L 561.285568 71.402854 
z
" style="fill:url(#ha3f78cb1ad);"/>
   </g>
   <g id="matplotlib.axis_1">
    <g id="xtick_1">
     <g id="text_1">
      <!-- A -->
      <defs>
       <path d="M 20.015625 26.421875 
L 46.78125 26.421875 
L 33.40625 61.078125 
z
M -0.59375 0 
L -0.59375 5.171875 
L 5.8125 5.171875 
L 31.78125 72.90625 
L 39.984375 72.90625 
L 66.015625 5.171875 
L 73.1875 5.171875 
L 73.1875 0 
L 46.6875 0 
L 46.6875 5.171875 
L 54.78125 5.171875 
L 48.6875 21.1875 
L 18.015625 21.1875 
L 11.921875 5.171875 
L 19.921875 5.171875 
L 19.921875 0 
z
" id="DejaVuSerif-65"/>
      </defs>
      <g transform="translate(97.236534 190.957188)scale(0.12 -0.12)">
       <use xlink:href="#DejaVuSerif-65"/>
      </g>
     </g>
    </g>
    <g id="xtick_2">
     <g id="text_2">
      <!-- A+ -->
      <defs>
       <path d="M 45.796875 62.703125 
L 45.796875 35.296875 
L 73.1875 35.296875 
L 73.1875 27.390625 
L 45.796875 27.390625 
L 45.796875 0 
L 37.984375 0 
L 37.984375 27.390625 
L 10.59375 27.390625 
L 10.59375 35.296875 
L 37.984375 35.296875 
L 37.984375 62.703125 
z
" id="DejaVuSerif-43"/>
      </defs>
      <g transform="translate(131.839403 190.957188)scale(0.12 -0.12)">
       <use xlink:href="#DejaVuSerif-65"/>
       <use x="72.216797" xlink:href="#DejaVuSerif-43"/>
      </g>
     </g>
    </g>
    <g id="xtick_3">
     <g id="text_3">
      <!-- A- -->
      <defs>
       <path d="M 4.390625 30.609375 
L 29.390625 30.609375 
L 29.390625 23 
L 4.390625 23 
z
" id="DejaVuSerif-45"/>
      </defs>
      <g transform="translate(174.470085 190.957188)scale(0.12 -0.12)">
       <use xlink:href="#DejaVuSerif-65"/>
       <use x="72.216797" xlink:href="#DejaVuSerif-45"/>
      </g>
     </g>
    </g>
    <g id="xtick_4">
     <g id="text_4">
      <!-- B -->
      <defs>
       <path d="M 24.703125 5.171875 
L 39.3125 5.171875 
Q 48.09375 5.171875 52.140625 8.984375 
Q 56.203125 12.796875 56.203125 21.09375 
Q 56.203125 29.34375 52.171875 33.125 
Q 48.140625 36.921875 39.3125 36.921875 
L 24.703125 36.921875 
z
M 24.703125 42.09375 
L 37.109375 42.09375 
Q 45.125 42.09375 48.796875 45.171875 
Q 52.484375 48.25 52.484375 54.890625 
Q 52.484375 61.578125 48.796875 64.625 
Q 45.125 67.671875 37.109375 67.671875 
L 24.703125 67.671875 
z
M 5.515625 0 
L 5.515625 5.171875 
L 14.796875 5.171875 
L 14.796875 67.671875 
L 5.515625 67.671875 
L 5.515625 72.90625 
L 41.5 72.90625 
Q 52.546875 72.90625 58.125 68.390625 
Q 63.71875 63.875 63.71875 54.890625 
Q 63.71875 48.390625 59.828125 44.53125 
Q 55.953125 40.671875 48.484375 39.796875 
Q 57.765625 38.625 62.578125 33.859375 
Q 67.390625 29.109375 67.390625 21.09375 
Q 67.390625 10.25 60.546875 5.125 
Q 53.71875 0 39.203125 0 
z
" id="DejaVuSerif-66"/>
      </defs>
      <g transform="translate(216.052642 190.957188)scale(0.12 -0.12)">
       <use xlink:href="#DejaVuSerif-66"/>
      </g>
     </g>
    </g>
    <g id="xtick_5">
     <g id="text_5">
      <!-- B+ -->
      <g transform="translate(250.655511 190.957188)scale(0.12 -0.12)">
       <use xlink:href="#DejaVuSerif-66"/>
       <use x="73.486328" xlink:href="#DejaVuSerif-43"/>
      </g>
     </g>
    </g>
    <g id="xtick_6">
     <g id="text_6">
      <!-- B- -->
      <g transform="translate(293.173693 190.957188)scale(0.12 -0.12)">
       <use xlink:href="#DejaVuSerif-66"/>
       <use x="75.361328" xlink:href="#DejaVuSerif-45"/>
      </g>
     </g>
    </g>
    <g id="xtick_7">
     <g id="text_7">
      <!-- C -->
      <defs>
       <path d="M 70.515625 19.28125 
Q 67.28125 9.078125 59.6875 3.828125 
Q 52.09375 -1.421875 40.484375 -1.421875 
Q 33.34375 -1.421875 27.234375 1.015625 
Q 21.140625 3.46875 16.40625 8.203125 
Q 10.9375 13.671875 8.265625 20.625 
Q 5.609375 27.59375 5.609375 36.375 
Q 5.609375 53.375 15.421875 63.796875 
Q 25.25 74.21875 41.3125 74.21875 
Q 47.265625 74.21875 54 72.65625 
Q 60.75 71.09375 68.5 67.921875 
L 68.5 51.125 
L 62.984375 51.125 
Q 61.1875 60.296875 55.734375 64.640625 
Q 50.296875 69 40.484375 69 
Q 28.8125 69 22.796875 60.71875 
Q 16.796875 52.4375 16.796875 36.375 
Q 16.796875 20.359375 22.796875 12.078125 
Q 28.8125 3.8125 40.484375 3.8125 
Q 48.640625 3.8125 53.90625 7.6875 
Q 59.1875 11.578125 61.53125 19.28125 
z
" id="DejaVuSerif-67"/>
      </defs>
      <g transform="translate(334.762812 190.957188)scale(0.12 -0.12)">
       <use xlink:href="#DejaVuSerif-67"/>
      </g>
     </g>
    </g>
    <g id="xtick_8">
     <g id="text_8">
      <!-- C+ -->
      <g transform="translate(369.365682 190.957188)scale(0.12 -0.12)">
       <use xlink:href="#DejaVuSerif-67"/>
       <use x="76.513672" xlink:href="#DejaVuSerif-43"/>
      </g>
     </g>
    </g>
    <g id="xtick_9">
     <g id="text_9">
      <!-- C- -->
      <g transform="translate(411.996364 190.957188)scale(0.12 -0.12)">
       <use xlink:href="#DejaVuSerif-67"/>
       <use x="76.513672" xlink:href="#DejaVuSerif-45"/>
      </g>
     </g>
    </g>
    <g id="xtick_10">
     <g id="text_10">
      <!-- D -->
      <defs>
       <path d="M 24.703125 5.171875 
L 33.796875 5.171875 
Q 48 5.171875 55.59375 13.28125 
Q 63.1875 21.390625 63.1875 36.53125 
Q 63.1875 51.65625 55.609375 59.65625 
Q 48.046875 67.671875 33.796875 67.671875 
L 24.703125 67.671875 
z
M 5.515625 0 
L 5.515625 5.171875 
L 14.796875 5.171875 
L 14.796875 67.671875 
L 5.515625 67.671875 
L 5.515625 72.90625 
L 34.515625 72.90625 
Q 53.375 72.90625 63.890625 63.28125 
Q 74.421875 53.65625 74.421875 36.53125 
Q 74.421875 19.34375 63.875 9.671875 
Q 53.328125 0 34.515625 0 
z
" id="DejaVuSerif-68"/>
      </defs>
      <g transform="translate(453.435483 190.957188)scale(0.12 -0.12)">
       <use xlink:href="#DejaVuSerif-68"/>
      </g>
     </g>
    </g>
    <g id="xtick_11">
     <g id="text_11">
      <!-- D+ -->
      <g transform="translate(488.038352 190.957188)scale(0.12 -0.12)">
       <use xlink:href="#DejaVuSerif-68"/>
       <use x="80.175781" xlink:href="#DejaVuSerif-43"/>
      </g>
     </g>
    </g>
    <g id="xtick_12">
     <g id="text_12">
      <!-- D- -->
      <g transform="translate(530.556534 190.957188)scale(0.12 -0.12)">
       <use xlink:href="#DejaVuSerif-68"/>
       <use x="82.050781" xlink:href="#DejaVuSerif-45"/>
      </g>
     </g>
    </g>
    <g id="xtick_13">
     <g id="text_13">
      <!-- F -->
      <defs>
       <path d="M 5.515625 0 
L 5.515625 5.171875 
L 14.796875 5.171875 
L 14.796875 67.671875 
L 5.515625 67.671875 
L 5.515625 72.90625 
L 65.1875 72.90625 
L 65.1875 56.6875 
L 59.1875 56.6875 
L 59.1875 66.890625 
L 24.703125 66.890625 
L 24.703125 42.484375 
L 49.609375 42.484375 
L 49.609375 51.609375 
L 55.609375 51.609375 
L 55.609375 27.390625 
L 49.609375 27.390625 
L 49.609375 36.53125 
L 24.703125 36.53125 
L 24.703125 5.171875 
L 36.375 5.171875 
L 36.375 0 
z
" id="DejaVuSerif-70"/>
      </defs>
      <g transform="translate(572.974403 190.957188)scale(0.12 -0.12)">
       <use xlink:href="#DejaVuSerif-70"/>
      </g>
     </g>
    </g>
    <g id="text_14">
     <!-- Letter Grade -->
     <defs>
      <path d="M 5.515625 0 
L 5.515625 5.171875 
L 14.796875 5.171875 
L 14.796875 67.671875 
L 5.515625 67.671875 
L 5.515625 72.90625 
L 33.984375 72.90625 
L 33.984375 67.671875 
L 24.703125 67.671875 
L 24.703125 6 
L 58.015625 6 
L 58.015625 18.21875 
L 64.015625 18.21875 
L 64.015625 0 
z
" id="DejaVuSerif-76"/>
      <path d="M 54.203125 25 
L 15.484375 25 
L 15.484375 24.609375 
Q 15.484375 14.109375 19.4375 8.765625 
Q 23.390625 3.421875 31.109375 3.421875 
Q 37.015625 3.421875 40.796875 6.515625 
Q 44.578125 9.625 46.09375 15.71875 
L 53.328125 15.71875 
Q 51.171875 7.171875 45.375 2.875 
Q 39.59375 -1.421875 30.171875 -1.421875 
Q 18.796875 -1.421875 11.890625 6.078125 
Q 4.984375 13.578125 4.984375 25.984375 
Q 4.984375 38.28125 11.765625 45.796875 
Q 18.5625 53.328125 29.59375 53.328125 
Q 41.359375 53.328125 47.65625 46.0625 
Q 53.953125 38.8125 54.203125 25 
z
M 43.609375 30.171875 
Q 43.3125 39.265625 39.765625 43.875 
Q 36.234375 48.484375 29.59375 48.484375 
Q 23.390625 48.484375 19.828125 43.84375 
Q 16.265625 39.203125 15.484375 30.171875 
z
" id="DejaVuSerif-101"/>
      <path d="M 10.796875 46.6875 
L 2.875 46.6875 
L 2.875 51.90625 
L 10.796875 51.90625 
L 10.796875 68.015625 
L 19.828125 68.015625 
L 19.828125 51.90625 
L 36.71875 51.90625 
L 36.71875 46.6875 
L 19.828125 46.6875 
L 19.828125 13.71875 
Q 19.828125 7.125 21.09375 5.265625 
Q 22.359375 3.421875 25.78125 3.421875 
Q 29.296875 3.421875 30.90625 5.484375 
Q 32.515625 7.5625 32.625 12.203125 
L 39.40625 12.203125 
Q 39.015625 5.125 35.546875 1.84375 
Q 32.078125 -1.421875 25 -1.421875 
Q 17.234375 -1.421875 14.015625 2.015625 
Q 10.796875 5.46875 10.796875 13.71875 
z
" id="DejaVuSerif-116"/>
      <path d="M 47.796875 52 
L 47.796875 39.015625 
L 42.625 39.015625 
Q 42.390625 42.875 40.484375 44.78125 
Q 38.578125 46.6875 34.90625 46.6875 
Q 28.265625 46.6875 24.71875 42.09375 
Q 21.1875 37.5 21.1875 28.90625 
L 21.1875 5.171875 
L 31.59375 5.171875 
L 31.59375 0 
L 4.109375 0 
L 4.109375 5.171875 
L 12.203125 5.171875 
L 12.203125 46.78125 
L 3.609375 46.78125 
L 3.609375 51.90625 
L 21.1875 51.90625 
L 21.1875 42.671875 
Q 23.828125 48.09375 27.96875 50.703125 
Q 32.125 53.328125 38.09375 53.328125 
Q 40.28125 53.328125 42.703125 52.984375 
Q 45.125 52.640625 47.796875 52 
z
" id="DejaVuSerif-114"/>
      <path id="DejaVuSerif-32"/>
      <path d="M 64.015625 51.125 
Q 62.3125 60.25 56.890625 64.625 
Q 51.46875 69 41.796875 69 
Q 29.203125 69 23 60.890625 
Q 16.796875 52.78125 16.796875 36.375 
Q 16.796875 20.3125 23.1875 12.0625 
Q 29.59375 3.8125 42 3.8125 
Q 47.515625 3.8125 52.53125 5.171875 
Q 57.5625 6.546875 62.109375 9.28125 
L 62.109375 28.078125 
L 48.390625 28.078125 
L 48.390625 33.296875 
L 72.015625 33.296875 
L 72.015625 6.109375 
Q 65.53125 2.34375 58.03125 0.453125 
Q 50.53125 -1.421875 42 -1.421875 
Q 25.484375 -1.421875 15.546875 8.90625 
Q 5.609375 19.234375 5.609375 36.375 
Q 5.609375 53.65625 15.5625 63.9375 
Q 25.53125 74.21875 42.390625 74.21875 
Q 48.640625 74.21875 55.296875 72.78125 
Q 61.96875 71.34375 69.484375 68.40625 
L 69.484375 51.125 
z
" id="DejaVuSerif-71"/>
      <path d="M 39.796875 16.3125 
L 39.796875 27.296875 
L 28.21875 27.296875 
Q 21.53125 27.296875 18.25 24.40625 
Q 14.984375 21.53125 14.984375 15.578125 
Q 14.984375 10.15625 18.296875 6.984375 
Q 21.625 3.8125 27.296875 3.8125 
Q 32.90625 3.8125 36.34375 7.28125 
Q 39.796875 10.75 39.796875 16.3125 
z
M 48.78125 32.421875 
L 48.78125 5.171875 
L 56.78125 5.171875 
L 56.78125 0 
L 39.796875 0 
L 39.796875 5.609375 
Q 36.8125 2 32.90625 0.28125 
Q 29 -1.421875 23.78125 -1.421875 
Q 15.140625 -1.421875 10.0625 3.171875 
Q 4.984375 7.765625 4.984375 15.578125 
Q 4.984375 23.640625 10.796875 28.078125 
Q 16.609375 32.515625 27.203125 32.515625 
L 39.796875 32.515625 
L 39.796875 36.078125 
Q 39.796875 42 36.203125 45.234375 
Q 32.625 48.484375 26.125 48.484375 
Q 20.75 48.484375 17.578125 46.046875 
Q 14.40625 43.609375 13.625 38.8125 
L 8.984375 38.8125 
L 8.984375 49.3125 
Q 13.671875 51.3125 18.09375 52.3125 
Q 22.515625 53.328125 26.703125 53.328125 
Q 37.5 53.328125 43.140625 47.96875 
Q 48.78125 42.625 48.78125 32.421875 
z
" id="DejaVuSerif-97"/>
      <path d="M 52.484375 5.171875 
L 61.078125 5.171875 
L 61.078125 0 
L 43.5 0 
L 43.5 8.109375 
Q 40.875 3.21875 36.796875 0.890625 
Q 32.71875 -1.421875 26.703125 -1.421875 
Q 17.140625 -1.421875 11.0625 6.171875 
Q 4.984375 13.765625 4.984375 25.984375 
Q 4.984375 38.1875 11.03125 45.75 
Q 17.09375 53.328125 26.703125 53.328125 
Q 32.71875 53.328125 36.796875 51 
Q 40.875 48.6875 43.5 43.796875 
L 43.5 70.796875 
L 35.015625 70.796875 
L 35.015625 75.984375 
L 52.484375 75.984375 
z
M 43.5 23.390625 
L 43.5 28.515625 
Q 43.5 37.84375 39.90625 42.765625 
Q 36.328125 47.703125 29.5 47.703125 
Q 22.5625 47.703125 19.015625 42.234375 
Q 15.484375 36.765625 15.484375 25.984375 
Q 15.484375 15.234375 19.015625 9.71875 
Q 22.5625 4.203125 29.5 4.203125 
Q 36.328125 4.203125 39.90625 9.109375 
Q 43.5 14.015625 43.5 23.390625 
z
" id="DejaVuSerif-100"/>
     </defs>
     <g transform="translate(300.03875 206.570938)scale(0.12 -0.12)">
      <use xlink:href="#DejaVuSerif-76"/>
      <use x="66.40625" xlink:href="#DejaVuSerif-101"/>
      <use x="125.585938" xlink:href="#DejaVuSerif-116"/>
      <use x="165.771484" xlink:href="#DejaVuSerif-116"/>
      <use x="205.957031" xlink:href="#DejaVuSerif-101"/>
      <use x="265.136719" xlink:href="#DejaVuSerif-114"/>
      <use x="312.939453" xlink:href="#DejaVuSerif-32"/>
      <use x="344.726562" xlink:href="#DejaVuSerif-71"/>
      <use x="424.609375" xlink:href="#DejaVuSerif-114"/>
      <use x="472.412109" xlink:href="#DejaVuSerif-97"/>
      <use x="532.03125" xlink:href="#DejaVuSerif-100"/>
      <use x="596.044922" xlink:href="#DejaVuSerif-101"/>
     </g>
    </g>
   </g>
   <g id="matplotlib.axis_2">
    <g id="ytick_1">
     <g id="line2d_1">
      <path clip-path="url(#pb305bb34c8)" d="M 60.35375 174.839063 
L 618.35375 174.839063 
" style="fill:none;stroke:#b0b0b0;stroke-linecap:square;stroke-width:0.8;"/>
     </g>
     <g id="text_15">
      <!-- 0 -->
      <defs>
       <path d="M 31.78125 3.421875 
Q 39.265625 3.421875 42.96875 11.625 
Q 46.6875 19.828125 46.6875 36.375 
Q 46.6875 52.984375 42.96875 61.1875 
Q 39.265625 69.390625 31.78125 69.390625 
Q 24.3125 69.390625 20.59375 61.1875 
Q 16.890625 52.984375 16.890625 36.375 
Q 16.890625 19.828125 20.59375 11.625 
Q 24.3125 3.421875 31.78125 3.421875 
z
M 31.78125 -1.421875 
Q 19.921875 -1.421875 13.25 8.53125 
Q 6.59375 18.5 6.59375 36.375 
Q 6.59375 54.296875 13.25 64.25 
Q 19.921875 74.21875 31.78125 74.21875 
Q 43.703125 74.21875 50.34375 64.25 
Q 56.984375 54.296875 56.984375 36.375 
Q 56.984375 18.5 50.34375 8.53125 
Q 43.703125 -1.421875 31.78125 -1.421875 
z
" id="DejaVuSerif-48"/>
      </defs>
      <g transform="translate(45.71875 179.398125)scale(0.12 -0.12)">
       <use xlink:href="#DejaVuSerif-48"/>
      </g>
     </g>
    </g>
    <g id="ytick_2">
     <g id="line2d_2">
      <path clip-path="url(#pb305bb34c8)" d="M 60.35375 142.223062 
L 618.35375 142.223062 
" style="fill:none;stroke:#b0b0b0;stroke-linecap:square;stroke-width:0.8;"/>
     </g>
     <g id="text_16">
      <!-- 1500 -->
      <defs>
       <path d="M 14.203125 0 
L 14.203125 5.171875 
L 26.90625 5.171875 
L 26.90625 65.828125 
L 12.203125 56.296875 
L 12.203125 62.703125 
L 29.984375 74.21875 
L 36.71875 74.21875 
L 36.71875 5.171875 
L 49.421875 5.171875 
L 49.421875 0 
z
" id="DejaVuSerif-49"/>
       <path d="M 50.296875 72.90625 
L 50.296875 64.890625 
L 16.890625 64.890625 
L 16.890625 44 
Q 19.4375 45.75 22.828125 46.625 
Q 26.21875 47.515625 30.421875 47.515625 
Q 42.234375 47.515625 49.0625 40.96875 
Q 55.90625 34.421875 55.90625 23.09375 
Q 55.90625 11.53125 49 5.046875 
Q 42.09375 -1.421875 29.59375 -1.421875 
Q 24.5625 -1.421875 19.28125 -0.1875 
Q 14.015625 1.03125 8.5 3.515625 
L 8.5 17.671875 
L 14.015625 17.671875 
Q 14.453125 10.75 18.421875 7.078125 
Q 22.40625 3.421875 29.59375 3.421875 
Q 37.3125 3.421875 41.453125 8.5 
Q 45.609375 13.578125 45.609375 23.09375 
Q 45.609375 32.5625 41.484375 37.609375 
Q 37.359375 42.671875 29.59375 42.671875 
Q 25.203125 42.671875 21.84375 41.109375 
Q 18.5 39.546875 15.921875 36.28125 
L 11.71875 36.28125 
L 11.71875 72.90625 
z
" id="DejaVuSerif-53"/>
      </defs>
      <g transform="translate(22.81375 146.782125)scale(0.12 -0.12)">
       <use xlink:href="#DejaVuSerif-49"/>
       <use x="63.623047" xlink:href="#DejaVuSerif-53"/>
       <use x="127.246094" xlink:href="#DejaVuSerif-48"/>
       <use x="190.869141" xlink:href="#DejaVuSerif-48"/>
      </g>
     </g>
    </g>
    <g id="ytick_3">
     <g id="line2d_3">
      <path clip-path="url(#pb305bb34c8)" d="M 60.35375 109.607062 
L 618.35375 109.607062 
" style="fill:none;stroke:#b0b0b0;stroke-linecap:square;stroke-width:0.8;"/>
     </g>
     <g id="text_17">
      <!-- 3000 -->
      <defs>
       <path d="M 9.71875 69.828125 
Q 15.4375 71.96875 20.671875 73.09375 
Q 25.921875 74.21875 30.515625 74.21875 
Q 41.21875 74.21875 47.21875 69.59375 
Q 53.21875 64.984375 53.21875 56.78125 
Q 53.21875 50.203125 49.0625 45.78125 
Q 44.921875 41.359375 37.3125 39.796875 
Q 46.296875 38.53125 51.25 33.28125 
Q 56.203125 28.03125 56.203125 19.671875 
Q 56.203125 9.46875 49.34375 4.015625 
Q 42.484375 -1.421875 29.59375 -1.421875 
Q 23.875 -1.421875 18.421875 -0.1875 
Q 12.984375 1.03125 7.625 3.515625 
L 7.625 17.671875 
L 13.09375 17.671875 
Q 13.578125 10.640625 17.828125 7.03125 
Q 22.078125 3.421875 29.78125 3.421875 
Q 37.25 3.421875 41.578125 7.734375 
Q 45.90625 12.0625 45.90625 19.578125 
Q 45.90625 28.171875 41.453125 32.59375 
Q 37.015625 37.015625 28.421875 37.015625 
L 23.78125 37.015625 
L 23.78125 42 
L 26.21875 42 
Q 34.765625 42 39.03125 45.53125 
Q 43.3125 49.078125 43.3125 56.203125 
Q 43.3125 62.59375 39.796875 65.984375 
Q 36.28125 69.390625 29.6875 69.390625 
Q 23.09375 69.390625 19.453125 66.265625 
Q 15.828125 63.140625 15.1875 56.984375 
L 9.71875 56.984375 
z
" id="DejaVuSerif-51"/>
      </defs>
      <g transform="translate(22.81375 114.166125)scale(0.12 -0.12)">
       <use xlink:href="#DejaVuSerif-51"/>
       <use x="63.623047" xlink:href="#DejaVuSerif-48"/>
       <use x="127.246094" xlink:href="#DejaVuSerif-48"/>
       <use x="190.869141" xlink:href="#DejaVuSerif-48"/>
      </g>
     </g>
    </g>
    <g id="ytick_4">
     <g id="line2d_4">
      <path clip-path="url(#pb305bb34c8)" d="M 60.35375 76.991062 
L 618.35375 76.991062 
" style="fill:none;stroke:#b0b0b0;stroke-linecap:square;stroke-width:0.8;"/>
     </g>
     <g id="text_18">
      <!-- 4500 -->
      <defs>
       <path d="M 34.90625 24.703125 
L 34.90625 63.484375 
L 10.015625 24.703125 
z
M 56.390625 0 
L 23.1875 0 
L 23.1875 5.171875 
L 34.90625 5.171875 
L 34.90625 19.484375 
L 3.078125 19.484375 
L 3.078125 24.8125 
L 35.015625 74.21875 
L 44.671875 74.21875 
L 44.671875 24.703125 
L 58.59375 24.703125 
L 58.59375 19.484375 
L 44.671875 19.484375 
L 44.671875 5.171875 
L 56.390625 5.171875 
z
" id="DejaVuSerif-52"/>
      </defs>
      <g transform="translate(22.81375 81.550125)scale(0.12 -0.12)">
       <use xlink:href="#DejaVuSerif-52"/>
       <use x="63.623047" xlink:href="#DejaVuSerif-53"/>
       <use x="127.246094" xlink:href="#DejaVuSerif-48"/>
       <use x="190.869141" xlink:href="#DejaVuSerif-48"/>
      </g>
     </g>
    </g>
    <g id="ytick_5">
     <g id="line2d_5">
      <path clip-path="url(#pb305bb34c8)" d="M 60.35375 44.375062 
L 618.35375 44.375062 
" style="fill:none;stroke:#b0b0b0;stroke-linecap:square;stroke-width:0.8;"/>
     </g>
     <g id="text_19">
      <!-- 6000 -->
      <defs>
       <path d="M 32.71875 3.421875 
Q 39.59375 3.421875 43.296875 8.46875 
Q 47.015625 13.53125 47.015625 23 
Q 47.015625 32.46875 43.296875 37.515625 
Q 39.59375 42.578125 32.71875 42.578125 
Q 25.734375 42.578125 22.0625 37.6875 
Q 18.40625 32.8125 18.40625 23.578125 
Q 18.40625 13.875 22.109375 8.640625 
Q 25.828125 3.421875 32.71875 3.421875 
z
M 16.796875 40.140625 
Q 20.125 43.796875 24.3125 45.59375 
Q 28.515625 47.40625 33.796875 47.40625 
Q 44.671875 47.40625 51 40.859375 
Q 57.328125 34.328125 57.328125 23 
Q 57.328125 11.921875 50.515625 5.25 
Q 43.703125 -1.421875 32.328125 -1.421875 
Q 19.96875 -1.421875 13.328125 7.78125 
Q 6.6875 17 6.6875 34.078125 
Q 6.6875 53.21875 14.546875 63.71875 
Q 22.40625 74.21875 36.71875 74.21875 
Q 40.578125 74.21875 44.828125 73.484375 
Q 49.078125 72.75 53.515625 71.296875 
L 53.515625 59.28125 
L 48 59.28125 
Q 47.40625 64.203125 44.234375 66.796875 
Q 41.0625 69.390625 35.6875 69.390625 
Q 26.21875 69.390625 21.578125 62.203125 
Q 16.9375 55.03125 16.796875 40.140625 
z
" id="DejaVuSerif-54"/>
      </defs>
      <g transform="translate(22.81375 48.934125)scale(0.12 -0.12)">
       <use xlink:href="#DejaVuSerif-54"/>
       <use x="63.623047" xlink:href="#DejaVuSerif-48"/>
       <use x="127.246094" xlink:href="#DejaVuSerif-48"/>
       <use x="190.869141" xlink:href="#DejaVuSerif-48"/>
      </g>
     </g>
    </g>
    <g id="ytick_6">
     <g id="line2d_6">
      <path clip-path="url(#pb305bb34c8)" d="M 60.35375 11.759062 
L 618.35375 11.759062 
" style="fill:none;stroke:#b0b0b0;stroke-linecap:square;stroke-width:0.8;"/>
     </g>
     <g id="text_20">
      <!-- 7500 -->
      <defs>
       <path d="M 56.390625 67.921875 
L 27.875 0 
L 20.609375 0 
L 47.796875 64.890625 
L 14.109375 64.890625 
L 14.109375 55.90625 
L 8.40625 55.90625 
L 8.40625 72.90625 
L 56.390625 72.90625 
z
" id="DejaVuSerif-55"/>
      </defs>
      <g transform="translate(22.81375 16.318125)scale(0.12 -0.12)">
       <use xlink:href="#DejaVuSerif-55"/>
       <use x="63.623047" xlink:href="#DejaVuSerif-53"/>
       <use x="127.246094" xlink:href="#DejaVuSerif-48"/>
       <use x="190.869141" xlink:href="#DejaVuSerif-48"/>
      </g>
     </g>
    </g>
    <g id="text_21">
     <!-- Count -->
     <defs>
      <path d="M 30.078125 3.421875 
Q 37.3125 3.421875 40.984375 9.125 
Q 44.671875 14.84375 44.671875 25.984375 
Q 44.671875 37.109375 40.984375 42.796875 
Q 37.3125 48.484375 30.078125 48.484375 
Q 22.859375 48.484375 19.171875 42.796875 
Q 15.484375 37.109375 15.484375 25.984375 
Q 15.484375 14.84375 19.1875 9.125 
Q 22.90625 3.421875 30.078125 3.421875 
z
M 30.078125 -1.421875 
Q 18.75 -1.421875 11.859375 6.078125 
Q 4.984375 13.578125 4.984375 25.984375 
Q 4.984375 38.375 11.84375 45.84375 
Q 18.703125 53.328125 30.078125 53.328125 
Q 41.453125 53.328125 48.3125 45.84375 
Q 55.171875 38.375 55.171875 25.984375 
Q 55.171875 13.578125 48.3125 6.078125 
Q 41.453125 -1.421875 30.078125 -1.421875 
z
" id="DejaVuSerif-111"/>
      <path d="M 35.40625 51.90625 
L 52.203125 51.90625 
L 52.203125 5.171875 
L 60.6875 5.171875 
L 60.6875 0 
L 43.21875 0 
L 43.21875 9.1875 
Q 40.71875 4 36.765625 1.28125 
Q 32.8125 -1.421875 27.59375 -1.421875 
Q 18.953125 -1.421875 14.875 3.484375 
Q 10.796875 8.40625 10.796875 18.890625 
L 10.796875 46.6875 
L 2.6875 46.6875 
L 2.6875 51.90625 
L 19.828125 51.90625 
L 19.828125 21.6875 
Q 19.828125 12.203125 22.140625 8.6875 
Q 24.46875 5.171875 30.421875 5.171875 
Q 36.671875 5.171875 39.9375 9.765625 
Q 43.21875 14.359375 43.21875 23.09375 
L 43.21875 46.6875 
L 35.40625 46.6875 
z
" id="DejaVuSerif-117"/>
      <path d="M 4.109375 0 
L 4.109375 5.171875 
L 12.203125 5.171875 
L 12.203125 46.6875 
L 3.609375 46.6875 
L 3.609375 51.90625 
L 21.1875 51.90625 
L 21.1875 42.671875 
Q 23.6875 47.953125 27.65625 50.640625 
Q 31.640625 53.328125 36.921875 53.328125 
Q 45.515625 53.328125 49.5625 48.390625 
Q 53.609375 43.453125 53.609375 33.015625 
L 53.609375 5.171875 
L 61.625 5.171875 
L 61.625 0 
L 36.8125 0 
L 36.8125 5.171875 
L 44.578125 5.171875 
L 44.578125 30.171875 
Q 44.578125 39.703125 42.234375 43.234375 
Q 39.890625 46.78125 33.984375 46.78125 
Q 27.734375 46.78125 24.453125 42.203125 
Q 21.1875 37.640625 21.1875 28.90625 
L 21.1875 5.171875 
L 29 5.171875 
L 29 0 
z
" id="DejaVuSerif-110"/>
     </defs>
     <g transform="translate(16.318125 111.642188)rotate(-90)scale(0.12 -0.12)">
      <use xlink:href="#DejaVuSerif-67"/>
      <use x="76.513672" xlink:href="#DejaVuSerif-111"/>
      <use x="136.71875" xlink:href="#DejaVuSerif-117"/>
      <use x="201.123047" xlink:href="#DejaVuSerif-110"/>
      <use x="265.527344" xlink:href="#DejaVuSerif-116"/>
     </g>
    </g>
   </g>
   <g id="patch_16">
    <path d="M 60.35375 174.839063 
L 618.35375 174.839063 
" style="fill:none;stroke:#000000;stroke-linecap:square;stroke-linejoin:miter;stroke-width:0.8;"/>
   </g>
   <g id="text_22">
    <!-- 6780 -->
    <defs>
     <path d="M 24.609375 43.21875 
Q 27.78125 45.75 31.703125 47.015625 
Q 35.640625 48.296875 40.28125 48.296875 
Q 51.46875 48.296875 57.828125 41.75 
Q 64.203125 35.203125 64.203125 23.78125 
Q 64.203125 11.71875 57.03125 5.140625 
Q 49.859375 -1.421875 36.625 -1.421875 
Q 21.6875 -1.421875 13.984375 7.59375 
Q 6.296875 16.609375 6.296875 34.078125 
Q 6.296875 53.953125 14.84375 64.078125 
Q 23.390625 74.21875 40.1875 74.21875 
Q 44.578125 74.21875 49.609375 73.484375 
Q 54.640625 72.75 60.40625 71.296875 
L 60.40625 58.40625 
L 54.5 58.40625 
Q 53.265625 63.375 49.875 65.9375 
Q 46.484375 68.5 41.109375 68.5 
Q 32.421875 68.5 28.53125 62.546875 
Q 24.65625 56.59375 24.609375 43.21875 
z
M 35.5 4.296875 
Q 40.53125 4.296875 42.671875 8.5625 
Q 44.828125 12.84375 44.828125 23.390625 
Q 44.828125 33.9375 42.671875 38.203125 
Q 40.53125 42.484375 35.5 42.484375 
Q 30.46875 42.484375 28.34375 38.203125 
Q 26.21875 33.9375 26.21875 23.390625 
Q 26.21875 12.84375 28.34375 8.5625 
Q 30.46875 4.296875 35.5 4.296875 
z
" id="DejaVuSerif-Bold-54"/>
     <path d="M 61.28125 60.5 
L 31.203125 0 
L 21.296875 0 
L 50.59375 59.078125 
L 14.59375 59.078125 
L 14.59375 49.21875 
L 7.90625 49.21875 
L 7.90625 72.90625 
L 61.28125 72.90625 
z
" id="DejaVuSerif-Bold-55"/>
     <path d="M 46.484375 38.8125 
Q 55.171875 37.40625 59.6875 32.421875 
Q 64.203125 27.4375 64.203125 19.390625 
Q 64.203125 9.328125 56.609375 3.953125 
Q 49.03125 -1.421875 34.71875 -1.421875 
Q 20.40625 -1.421875 12.78125 3.953125 
Q 5.171875 9.328125 5.171875 19.390625 
Q 5.171875 27.4375 9.71875 32.421875 
Q 14.265625 37.40625 22.90625 38.8125 
Q 15.234375 40.578125 11.421875 44.703125 
Q 7.625 48.828125 7.625 55.171875 
Q 7.625 64.453125 14.546875 69.328125 
Q 21.484375 74.21875 34.71875 74.21875 
Q 47.90625 74.21875 54.859375 69.328125 
Q 61.8125 64.453125 61.8125 55.171875 
Q 61.8125 48.828125 57.984375 44.703125 
Q 54.15625 40.578125 46.484375 38.8125 
z
M 42.921875 54.984375 
Q 42.921875 62.703125 41.0625 65.59375 
Q 39.203125 68.5 34.71875 68.5 
Q 30.171875 68.5 28.34375 65.59375 
Q 26.515625 62.703125 26.515625 54.984375 
Q 26.515625 47.3125 28.34375 44.453125 
Q 30.171875 41.609375 34.71875 41.609375 
Q 39.265625 41.609375 41.09375 44.453125 
Q 42.921875 47.3125 42.921875 54.984375 
z
M 44.828125 20.21875 
Q 44.828125 29.15625 42.546875 32.515625 
Q 40.28125 35.890625 34.71875 35.890625 
Q 29.109375 35.890625 26.859375 32.515625 
Q 24.609375 29.15625 24.609375 20.21875 
Q 24.609375 11.1875 26.875 7.734375 
Q 29.15625 4.296875 34.71875 4.296875 
Q 40.234375 4.296875 42.53125 7.734375 
Q 44.828125 11.1875 44.828125 20.21875 
z
" id="DejaVuSerif-Bold-56"/>
     <path d="M 34.8125 4.296875 
Q 40.671875 4.296875 42.84375 9.609375 
Q 45.015625 14.9375 45.015625 36.375 
Q 45.015625 57.671875 42.84375 63.078125 
Q 40.671875 68.5 34.8125 68.5 
Q 28.953125 68.5 26.78125 63.171875 
Q 24.609375 57.859375 24.609375 36.375 
Q 24.609375 14.9375 26.78125 9.609375 
Q 28.953125 4.296875 34.8125 4.296875 
z
M 34.8125 -1.421875 
Q 20.21875 -1.421875 12.453125 8.3125 
Q 4.6875 18.0625 4.6875 36.375 
Q 4.6875 54.6875 12.453125 64.453125 
Q 20.21875 74.21875 34.8125 74.21875 
Q 49.359375 74.21875 57.125 64.453125 
Q 64.890625 54.6875 64.890625 36.375 
Q 64.890625 18.0625 57.125 8.3125 
Q 49.359375 -1.421875 34.8125 -1.421875 
z
" id="DejaVuSerif-Bold-48"/>
    </defs>
    <g transform="translate(85.717386 23.500822)scale(0.11 -0.11)">
     <use xlink:href="#DejaVuSerif-Bold-54"/>
     <use x="69.580078" xlink:href="#DejaVuSerif-Bold-55"/>
     <use x="139.160156" xlink:href="#DejaVuSerif-Bold-56"/>
     <use x="208.740234" xlink:href="#DejaVuSerif-Bold-48"/>
    </g>
   </g>
   <g id="text_23">
    <!-- 1899 -->
    <defs>
     <path d="M 13.71875 0 
L 13.71875 5.90625 
L 27.390625 5.90625 
L 27.390625 64.890625 
L 12.203125 55.90625 
L 12.203125 63.1875 
L 30.515625 74.21875 
L 45.90625 74.21875 
L 45.90625 5.90625 
L 59.625 5.90625 
L 59.625 0 
z
" id="DejaVuSerif-Bold-49"/>
     <path d="M 34.078125 68.5 
Q 29.046875 68.5 26.921875 64.234375 
Q 24.8125 59.96875 24.8125 49.421875 
Q 24.8125 38.875 26.921875 34.59375 
Q 29.046875 30.328125 34.078125 30.328125 
Q 39.109375 30.328125 41.25 34.59375 
Q 43.40625 38.875 43.40625 49.421875 
Q 43.40625 59.96875 41.25 64.234375 
Q 39.109375 68.5 34.078125 68.5 
z
M 44.96875 29.6875 
Q 41.75 27.09375 37.8125 25.796875 
Q 33.890625 24.515625 29.296875 24.515625 
Q 18.171875 24.515625 11.796875 31.03125 
Q 5.421875 37.546875 5.421875 49.03125 
Q 5.421875 61.140625 12.546875 67.671875 
Q 19.671875 74.21875 32.90625 74.21875 
Q 47.859375 74.21875 55.5625 65.1875 
Q 63.28125 56.15625 63.28125 38.71875 
Q 63.28125 18.84375 54.734375 8.703125 
Q 46.1875 -1.421875 29.390625 -1.421875 
Q 25 -1.421875 19.96875 -0.6875 
Q 14.9375 0.046875 9.1875 1.515625 
L 9.1875 14.40625 
L 15.09375 14.40625 
Q 16.3125 9.421875 19.703125 6.859375 
Q 23.09375 4.296875 28.515625 4.296875 
Q 37.109375 4.296875 41.015625 10.28125 
Q 44.921875 16.265625 44.96875 29.6875 
z
" id="DejaVuSerif-Bold-57"/>
    </defs>
    <g transform="translate(125.348068 129.633286)scale(0.11 -0.11)">
     <use xlink:href="#DejaVuSerif-Bold-49"/>
     <use x="69.580078" xlink:href="#DejaVuSerif-Bold-56"/>
     <use x="139.160156" xlink:href="#DejaVuSerif-Bold-57"/>
     <use x="208.740234" xlink:href="#DejaVuSerif-Bold-57"/>
    </g>
   </g>
   <g id="text_24">
    <!-- 5453 -->
    <defs>
     <path d="M 56.390625 72.90625 
L 56.390625 60.109375 
L 17.390625 60.109375 
L 17.390625 44.09375 
Q 20.609375 46.578125 24.5625 47.84375 
Q 28.515625 49.125 32.90625 49.125 
Q 46.390625 49.125 54.203125 42.3125 
Q 62.015625 35.5 62.015625 23.78125 
Q 62.015625 11.859375 54.203125 5.21875 
Q 46.390625 -1.421875 32.328125 -1.421875 
Q 26.375 -1.421875 20.484375 -0.4375 
Q 14.59375 0.53125 8.203125 2.59375 
L 8.203125 18.5 
L 14.0625 18.5 
Q 14.359375 11.328125 17.796875 7.8125 
Q 21.234375 4.296875 27.984375 4.296875 
Q 35.15625 4.296875 38.625 9.109375 
Q 42.09375 13.921875 42.09375 23.78125 
Q 42.09375 33.5 38.6875 38.296875 
Q 35.296875 43.109375 28.421875 43.109375 
Q 24.703125 43.109375 21.796875 41.578125 
Q 18.890625 40.046875 16.40625 36.8125 
L 11.53125 36.8125 
L 11.53125 72.90625 
z
" id="DejaVuSerif-Bold-53"/>
     <path d="M 63.8125 0 
L 23.6875 0 
L 23.6875 5.90625 
L 34.515625 5.90625 
L 34.515625 19.1875 
L 4.109375 19.1875 
L 4.109375 24.8125 
L 34.625 74.21875 
L 52.984375 74.21875 
L 52.984375 25.484375 
L 65.484375 25.484375 
L 65.484375 19.1875 
L 52.984375 19.1875 
L 52.984375 5.90625 
L 63.8125 5.90625 
z
M 34.515625 25.484375 
L 34.515625 60.890625 
L 12.796875 25.484375 
z
" id="DejaVuSerif-Bold-52"/>
     <path d="M 8.59375 70.796875 
Q 15.046875 72.515625 21.09375 73.359375 
Q 27.15625 74.21875 32.90625 74.21875 
Q 46.09375 74.21875 53.140625 69.5 
Q 60.203125 64.796875 60.203125 56 
Q 60.203125 49.421875 56.140625 45.3125 
Q 52.09375 41.21875 44.28125 39.796875 
Q 53.8125 38.28125 58.5 33.296875 
Q 63.1875 28.328125 63.1875 19.671875 
Q 63.1875 9.46875 55.09375 4.015625 
Q 47.015625 -1.421875 31.6875 -1.421875 
Q 25.921875 -1.421875 19.796875 -0.4375 
Q 13.671875 0.53125 6.984375 2.484375 
L 6.984375 18.5 
L 12.890625 18.5 
Q 13.421875 11.578125 17.234375 7.9375 
Q 21.046875 4.296875 27.78125 4.296875 
Q 35.203125 4.296875 39.25 8.421875 
Q 43.3125 12.546875 43.3125 20.125 
Q 43.3125 28.03125 39.078125 32.328125 
Q 34.859375 36.625 27.09375 36.625 
L 23.875 36.625 
L 23.875 42.484375 
L 26.421875 42.484375 
Q 33.59375 42.484375 37.203125 45.796875 
Q 40.828125 49.125 40.828125 55.71875 
Q 40.828125 61.921875 37.421875 65.203125 
Q 34.03125 68.5 27.6875 68.5 
Q 21.921875 68.5 18.546875 65.34375 
Q 15.1875 62.203125 14.5 56.203125 
L 8.59375 56.203125 
z
" id="DejaVuSerif-Bold-51"/>
    </defs>
    <g transform="translate(164.97875 52.35511)scale(0.11 -0.11)">
     <use xlink:href="#DejaVuSerif-Bold-53"/>
     <use x="69.580078" xlink:href="#DejaVuSerif-Bold-52"/>
     <use x="139.160156" xlink:href="#DejaVuSerif-Bold-53"/>
     <use x="208.740234" xlink:href="#DejaVuSerif-Bold-51"/>
    </g>
   </g>
   <g id="text_25">
    <!-- 5036 -->
    <g transform="translate(204.609432 61.422358)scale(0.11 -0.11)">
     <use xlink:href="#DejaVuSerif-Bold-53"/>
     <use x="69.580078" xlink:href="#DejaVuSerif-Bold-48"/>
     <use x="139.160156" xlink:href="#DejaVuSerif-Bold-51"/>
     <use x="208.740234" xlink:href="#DejaVuSerif-Bold-54"/>
    </g>
   </g>
   <g id="text_26">
    <!-- 5315 -->
    <g transform="translate(244.240114 55.355782)scale(0.11 -0.11)">
     <use xlink:href="#DejaVuSerif-Bold-53"/>
     <use x="69.580078" xlink:href="#DejaVuSerif-Bold-51"/>
     <use x="139.160156" xlink:href="#DejaVuSerif-Bold-49"/>
     <use x="208.740234" xlink:href="#DejaVuSerif-Bold-53"/>
    </g>
   </g>
   <g id="text_27">
    <!-- 4371 -->
    <g transform="translate(283.870795 75.882118)scale(0.11 -0.11)">
     <use xlink:href="#DejaVuSerif-Bold-52"/>
     <use x="69.580078" xlink:href="#DejaVuSerif-Bold-51"/>
     <use x="139.160156" xlink:href="#DejaVuSerif-Bold-55"/>
     <use x="208.740234" xlink:href="#DejaVuSerif-Bold-49"/>
    </g>
   </g>
   <g id="text_28">
    <!-- 3743 -->
    <g transform="translate(323.501477 89.537351)scale(0.11 -0.11)">
     <use xlink:href="#DejaVuSerif-Bold-51"/>
     <use x="69.580078" xlink:href="#DejaVuSerif-Bold-55"/>
     <use x="139.160156" xlink:href="#DejaVuSerif-Bold-52"/>
     <use x="208.740234" xlink:href="#DejaVuSerif-Bold-51"/>
    </g>
   </g>
   <g id="text_29">
    <!-- 3775 -->
    <g transform="translate(363.132159 88.841543)scale(0.11 -0.11)">
     <use xlink:href="#DejaVuSerif-Bold-51"/>
     <use x="69.580078" xlink:href="#DejaVuSerif-Bold-55"/>
     <use x="139.160156" xlink:href="#DejaVuSerif-Bold-55"/>
     <use x="208.740234" xlink:href="#DejaVuSerif-Bold-53"/>
    </g>
   </g>
   <g id="text_30">
    <!-- 2599 -->
    <defs>
     <path d="M 13.1875 54.890625 
L 7.328125 54.890625 
L 7.328125 70.609375 
Q 13.28125 72.40625 19.109375 73.3125 
Q 24.953125 74.21875 30.90625 74.21875 
Q 44.828125 74.21875 52.609375 68.53125 
Q 60.40625 62.84375 60.40625 52.6875 
Q 60.40625 45.453125 56.109375 39.71875 
Q 51.8125 33.984375 39.703125 26.125 
L 19.390625 12.796875 
L 53.90625 12.796875 
L 53.90625 21.390625 
L 60.59375 21.390625 
L 60.59375 0 
L 6.6875 0 
L 6.6875 11.921875 
L 17.484375 19.390625 
Q 31.296875 28.90625 35.890625 35.59375 
Q 40.484375 42.28125 40.484375 51.21875 
Q 40.484375 59.671875 36.984375 64.078125 
Q 33.5 68.5 26.8125 68.5 
Q 21.046875 68.5 17.578125 65.015625 
Q 14.109375 61.53125 13.1875 54.890625 
z
" id="DejaVuSerif-Bold-50"/>
    </defs>
    <g transform="translate(402.762841 114.412486)scale(0.11 -0.11)">
     <use xlink:href="#DejaVuSerif-Bold-50"/>
     <use x="69.580078" xlink:href="#DejaVuSerif-Bold-53"/>
     <use x="139.160156" xlink:href="#DejaVuSerif-Bold-57"/>
     <use x="208.740234" xlink:href="#DejaVuSerif-Bold-57"/>
    </g>
   </g>
   <g id="text_31">
    <!-- 2133 -->
    <g transform="translate(442.393523 124.545191)scale(0.11 -0.11)">
     <use xlink:href="#DejaVuSerif-Bold-50"/>
     <use x="69.580078" xlink:href="#DejaVuSerif-Bold-49"/>
     <use x="139.160156" xlink:href="#DejaVuSerif-Bold-51"/>
     <use x="208.740234" xlink:href="#DejaVuSerif-Bold-51"/>
    </g>
   </g>
   <g id="text_32">
    <!-- 2059 -->
    <g transform="translate(482.024205 126.154247)scale(0.11 -0.11)">
     <use xlink:href="#DejaVuSerif-Bold-50"/>
     <use x="69.580078" xlink:href="#DejaVuSerif-Bold-48"/>
     <use x="139.160156" xlink:href="#DejaVuSerif-Bold-53"/>
     <use x="208.740234" xlink:href="#DejaVuSerif-Bold-57"/>
    </g>
   </g>
   <g id="text_33">
    <!-- 821 -->
    <g transform="translate(521.654886 153.073319)scale(0.11 -0.11)">
     <use xlink:href="#DejaVuSerif-Bold-56"/>
     <use x="69.580078" xlink:href="#DejaVuSerif-Bold-50"/>
     <use x="139.160156" xlink:href="#DejaVuSerif-Bold-49"/>
    </g>
   </g>
   <g id="text_34">
    <!-- 4757 -->
    <g transform="translate(561.285568 67.488934)scale(0.11 -0.11)">
     <use xlink:href="#DejaVuSerif-Bold-52"/>
     <use x="69.580078" xlink:href="#DejaVuSerif-Bold-55"/>
     <use x="139.160156" xlink:href="#DejaVuSerif-Bold-53"/>
     <use x="208.740234" xlink:href="#DejaVuSerif-Bold-55"/>
    </g>
   </g>
  </g>
 </g>
 <defs>
  <clipPath id="pb305bb34c8">
   <rect height="163.08" width="558" x="60.35375" y="11.759062"/>
  </clipPath>
 </defs>
 <defs>
  <pattern height="72" id="ha3f78cb1ad" patternUnits="userSpaceOnUse" width="72" x="0" y="0">
   <rect fill="#ffffff" height="73" width="73" x="0" y="0"/>
   <path d="M -36 36 
L 36 -36 
M -33 39 
L 39 -33 
M -30 42 
L 42 -30 
M -27 45 
L 45 -27 
M -24 48 
L 48 -24 
M -21 51 
L 51 -21 
M -18 54 
L 54 -18 
M -15 57 
L 57 -15 
M -12 60 
L 60 -12 
M -9 63 
L 63 -9 
M -6 66 
L 66 -6 
M -3 69 
L 69 -3 
M 0 72 
L 72 0 
M 3 75 
L 75 3 
M 6 78 
L 78 6 
M 9 81 
L 81 9 
M 12 84 
L 84 12 
M 15 87 
L 87 15 
M 18 90 
L 90 18 
M 21 93 
L 93 21 
M 24 96 
L 96 24 
M 27 99 
L 99 27 
M 30 102 
L 102 30 
M 33 105 
L 105 33 
M 36 108 
L 108 36 
" style="fill:#000000;stroke:#000000;stroke-linecap:butt;stroke-linejoin:miter;stroke-width:1.0;"/>
  </pattern>
 </defs>
</svg>
